Raleway-Thin-OTF.ufo
<glyph name="ampersand" format="1">
  <advance width="635"/>
  <unicode hex="0026"/>
  <outline>
    <contour>
      <point x="625" y="0" type="line"/>
      <point x="503" y="126" type="line"/>
      <point x="541" y="186"/>
      <point x="562" y="260"/>
      <point x="562" y="333" type="curve"/>
      <point x="542" y="333" type="line"/>
      <point x="542" y="264"/>
      <point x="523" y="196"/>
      <point x="490" y="140" type="curve"/>
      <point x="250" y="389" type="line"/>
      <point x="340" y="450"/>
      <point x="426" y="509"/>
      <point x="426" y="591" type="curve" smooth="yes"/>
      <point x="426" y="660"/>
      <point x="364" y="719"/>
      <point x="277" y="719" type="curve" smooth="yes"/>
      <point x="183" y="719"/>
      <point x="110" y="650"/>
      <point x="110" y="574" type="curve" smooth="yes"/>
      <point x="110" y="526"/>
      <point x="139" y="480"/>
      <point x="223" y="391" type="curve"/>
      <point x="129" y="327"/>
      <point x="53" y="268"/>
      <point x="53" y="170" type="curve" smooth="yes"/>
      <point x="53" y="53"/>
      <point x="162" y="-10"/>
      <point x="270" y="-10" type="curve" smooth="yes"/>
      <point x="365" y="-10"/>
      <point x="442" y="39"/>
      <point x="492" y="110" type="curve"/>
      <point x="598" y="0" type="line"/>
    </contour>
    <contour>
      <point x="273" y="8" type="curve" smooth="yes"/>
      <point x="181" y="8"/>
      <point x="73" y="59"/>
      <point x="73" y="168" type="curve" smooth="yes"/>
      <point x="73" y="260"/>
      <point x="149" y="319"/>
      <point x="235" y="379" type="curve"/>
      <point x="479" y="124" type="line"/>
      <point x="432" y="55"/>
      <point x="361" y="8"/>
    </contour>
    <contour>
      <point x="130" y="573" type="curve" smooth="yes"/>
      <point x="130" y="642"/>
      <point x="194" y="699"/>
      <point x="276" y="699" type="curve" smooth="yes"/>
      <point x="351" y="699"/>
      <point x="406" y="652"/>
      <point x="406" y="589" type="curve" smooth="yes"/>
      <point x="406" y="519"/>
      <point x="341" y="471"/>
      <point x="238" y="401" type="curve"/>
      <point x="148" y="496"/>
      <point x="130" y="537"/>
    </contour>
  </outline>
</glyph>
<glyph name="I" format="1">
  <advance width="218"/>
  <unicode hex="0049"/>
  <outline>
    <contour>
      <point x="109" y="707" type="move" name="top"/>
    </contour>
    <contour>
      <point x="110" y="0" type="move" name="bottom"/>
    </contour>
    <contour>
      <point x="119" y="0" type="line"/>
      <point x="119" y="710" type="line"/>
      <point x="99" y="710" type="line"/>
      <point x="99" y="0" type="line"/>
    </contour>
  </outline>
</glyph>
<glyph name="N" format="1">
  <advance width="776"/>
  <unicode hex="004E"/>
  <outline>
    <contour>
      <point x="393" y="707" type="move" name="top"/>
    </contour>
    <contour>
      <point x="394" y="0" type="move" name="bottom"/>
    </contour>
    <contour>
      <point x="654" y="0" type="line"/>
      <point x="677" y="0" type="line"/>
      <point x="677" y="710" type="line"/>
      <point x="657" y="710" type="line"/>
      <point x="657" y="29" type="line"/>
      <point x="114" y="710" type="line"/>
      <point x="99" y="710" type="line"/>
      <point x="99" y="0" type="line"/>
      <point x="119" y="0" type="line"/>
      <point x="119" y="671" type="line"/>
    </contour>
  </outline>
</glyph>
<glyph name="l" format="1">
  <advance width="238"/>
  <unicode hex="006C"/>
  <outline>
    <contour>
      <point x="180" y="519" type="move" name="top"/>
    </contour>
    <contour>
      <point x="162" y="0" type="move" name="bottom"/>
    </contour>
    <contour>
      <point x="90" y="77" type="line" smooth="yes"/>
      <point x="90" y="28"/>
      <point x="122" y="-5"/>
      <point x="169" y="-5" type="curve" smooth="yes"/>
      <point x="187" y="-5"/>
      <point x="220" y="1"/>
      <point x="238" y="7" type="curve"/>
      <point x="231" y="23" type="line"/>
      <point x="214" y="18"/>
      <point x="191" y="14"/>
      <point x="176" y="14" type="curve" smooth="yes"/>
      <point x="136" y="14"/>
      <point x="110" y="38"/>
      <point x="110" y="77" type="curve" smooth="yes"/>
      <point x="110" y="730" type="line"/>
      <point x="90" y="730" type="line"/>
    </contour>
  </outline>
</glyph>
<glyph name="currency" format="1">
  <advance width="533"/>
  <unicode hex="00A4"/>
  <outline>
    <contour>
      <point x="79" y="534" type="line"/>
      <point x="64" y="520" type="line"/>
      <point x="132" y="452" type="line"/>
      <point x="106" y="420"/>
      <point x="90" y="379"/>
      <point x="90" y="335" type="curve" smooth="yes"/>
      <point x="90" y="290"/>
      <point x="106" y="249"/>
      <point x="134" y="217" type="curve"/>
      <point x="64" y="148" type="line"/>
      <point x="79" y="134" type="line"/>
      <point x="148" y="202" type="line"/>
      <point x="179" y="174"/>
      <point x="219" y="157"/>
      <point x="265" y="157" type="curve" smooth="yes"/>
      <point x="312" y="157"/>
      <point x="353" y="175"/>
      <point x="385" y="205" type="curve"/>
      <point x="457" y="134" type="line"/>
      <point x="472" y="148" type="line"/>
      <point x="399" y="219" type="line"/>
      <point x="426" y="251"/>
      <point x="442" y="292"/>
      <point x="442" y="335" type="curve" smooth="yes"/>
      <point x="442" y="378"/>
      <point x="426" y="418"/>
      <point x="401" y="450" type="curve"/>
      <point x="472" y="520" type="line"/>
      <point x="457" y="534" type="line"/>
      <point x="387" y="465" type="line"/>
      <point x="356" y="496"/>
      <point x="313" y="515"/>
      <point x="265" y="515" type="curve" smooth="yes"/>
      <point x="219" y="515"/>
      <point x="177" y="497"/>
      <point x="146" y="467" type="curve"/>
    </contour>
    <contour>
      <point x="111" y="334" type="curve" smooth="yes"/>
      <point x="111" y="424"/>
      <point x="182" y="496"/>
      <point x="265" y="496" type="curve" smooth="yes"/>
      <point x="350" y="496"/>
      <point x="421" y="425"/>
      <point x="421" y="336" type="curve" smooth="yes"/>
      <point x="421" y="249"/>
      <point x="350" y="175"/>
      <point x="265" y="175" type="curve" smooth="yes"/>
      <point x="181" y="175"/>
      <point x="111" y="246"/>
    </contour>
  </outline>
</glyph>
<glyph name="ordfeminine" format="1">
  <advance width="425"/>
  <unicode hex="00AA"/>
  <outline>
    <contour>
      <point x="263" y="519" type="move" name="top"/>
    </contour>
    <contour>
      <point x="456" y="11" type="move" name="bottom"/>
    </contour>
    <contour>
      <point x="170" y="351" type="curve" smooth="yes"/>
      <point x="230" y="351"/>
      <point x="286" y="375"/>
      <point x="319" y="416" type="curve"/>
      <point x="320" y="387" type="line" smooth="yes"/>
      <point x="320" y="372"/>
      <point x="329" y="361"/>
      <point x="343" y="358" type="curve" smooth="yes"/>
      <point x="348" y="357"/>
      <point x="354" y="357"/>
      <point x="361" y="357" type="curve"/>
      <point x="361" y="386" type="line"/>
      <point x="352" y="386"/>
      <point x="347" y="392"/>
      <point x="347" y="402" type="curve" smooth="yes"/>
      <point x="347" y="573" type="line" smooth="yes"/>
      <point x="347" y="658"/>
      <point x="293" y="709"/>
      <point x="207" y="709" type="curve" smooth="yes"/>
      <point x="166" y="709"/>
      <point x="123" y="694"/>
      <point x="76" y="663" type="curve"/>
      <point x="89" y="643" type="line"/>
      <point x="130" y="670"/>
      <point x="170" y="684"/>
      <point x="205" y="684" type="curve" smooth="yes"/>
      <point x="273" y="684"/>
      <point x="316" y="641"/>
      <point x="316" y="576" type="curve" smooth="yes"/>
      <point x="316" y="541" type="line"/>
      <point x="284" y="553"/>
      <point x="241" y="560"/>
      <point x="201" y="560" type="curve" smooth="yes"/>
      <point x="114" y="560"/>
      <point x="52" y="518"/>
      <point x="52" y="458" type="curve" smooth="yes"/>
      <point x="52" y="398"/>
      <point x="104" y="351"/>
    </contour>
    <contour>
      <point x="176" y="377" type="curve" smooth="yes"/>
      <point x="123" y="377"/>
      <point x="82" y="413"/>
      <point x="82" y="459" type="curve" smooth="yes"/>
      <point x="82" y="507"/>
      <point x="132" y="537"/>
      <point x="205" y="537" type="curve" smooth="yes"/>
      <point x="244" y="537"/>
      <point x="282" y="532"/>
      <point x="316" y="518" type="curve"/>
      <point x="316" y="457" type="line" smooth="yes"/>
      <point x="316" y="449"/>
      <point x="312" y="439"/>
      <point x="305" y="430" type="curve" smooth="yes"/>
      <point x="281" y="398"/>
      <point x="231" y="377"/>
    </contour>
  </outline>
</glyph>
<glyph name="macron" format="1">
  <advance width="380"/>
  <unicode hex="00AF"/>
  <outline>
    <contour>
      <point x="190" y="519" type="move" name="_top"/>
    </contour>
    <contour>
      <point x="330" y="686" type="line"/>
      <point x="330" y="706" type="line"/>
      <point x="50" y="706" type="line"/>
      <point x="50" y="686" type="line"/>
    </contour>
  </outline>
</glyph>
<glyph name="onequarter" format="1">
  <advance width="745"/>
  <unicode hex="00BC"/>
  <outline>
    <contour>
      <point x="114" y="-1" type="line"/>
      <point x="672" y="699" type="line"/>
      <point x="656" y="711" type="line"/>
      <point x="98" y="11" type="line"/>
    </contour>
    <contour>
      <point x="163" y="361" type="line"/>
      <point x="163" y="731" type="line"/>
      <point x="143" y="731" type="line"/>
      <point x="141" y="728"/>
      <point x="89" y="677"/>
      <point x="46" y="677" type="curve"/>
      <point x="46" y="658" type="line"/>
      <point x="79" y="658"/>
      <point x="129" y="688"/>
      <point x="143" y="705" type="curve"/>
      <point x="143" y="361" type="line"/>
      <point x="60" y="361" type="line"/>
      <point x="60" y="342" type="line"/>
      <point x="241" y="342" type="line"/>
      <point x="241" y="361" type="line"/>
    </contour>
    <contour>
      <point x="654" y="0" type="line"/>
      <point x="654" y="110" type="line"/>
      <point x="709" y="110" type="line"/>
      <point x="709" y="129" type="line"/>
      <point x="654" y="129" type="line"/>
      <point x="654" y="383" type="line"/>
      <point x="640" y="383" type="line"/>
      <point x="401" y="127" type="line"/>
      <point x="401" y="110" type="line"/>
      <point x="634" y="110" type="line"/>
      <point x="634" y="0" type="line"/>
    </contour>
    <contour>
      <point x="634" y="348" type="line"/>
      <point x="634" y="129" type="line"/>
      <point x="429" y="129" type="line"/>
    </contour>
  </outline>
</glyph>
<glyph name="onehalf" format="1">
  <advance width="796"/>
  <unicode hex="00BD"/>
  <outline>
    <contour>
      <point x="87" y="-1" type="line"/>
      <point x="645" y="699" type="line"/>
      <point x="629" y="711" type="line"/>
      <point x="71" y="11" type="line"/>
    </contour>
    <contour>
      <point x="167" y="361" type="line"/>
      <point x="167" y="731" type="line"/>
      <point x="147" y="731" type="line"/>
      <point x="145" y="728"/>
      <point x="93" y="677"/>
      <point x="50" y="677" type="curve"/>
      <point x="50" y="658" type="line"/>
      <point x="83" y="658"/>
      <point x="133" y="688"/>
      <point x="147" y="705" type="curve"/>
      <point x="147" y="361" type="line"/>
      <point x="64" y="361" type="line"/>
      <point x="64" y="342" type="line"/>
      <point x="245" y="342" type="line"/>
      <point x="245" y="361" type="line"/>
    </contour>
    <contour>
      <point x="752" y="0" type="line"/>
      <point x="752" y="19" type="line"/>
      <point x="492" y="19" type="line"/>
      <point x="492" y="59"/>
      <point x="500" y="124"/>
      <point x="605" y="160" type="curve" smooth="yes"/>
      <point x="661" y="179"/>
      <point x="751" y="199"/>
      <point x="751" y="279" type="curve" smooth="yes"/>
      <point x="751" y="336"/>
      <point x="709" y="388"/>
      <point x="619" y="388" type="curve" smooth="yes"/>
      <point x="522" y="388"/>
      <point x="475" y="326"/>
      <point x="472" y="321" type="curve"/>
      <point x="487" y="309" type="line"/>
      <point x="504" y="331"/>
      <point x="544" y="369"/>
      <point x="617" y="369" type="curve" smooth="yes"/>
      <point x="694" y="369"/>
      <point x="730" y="326"/>
      <point x="730" y="280" type="curve" smooth="yes"/>
      <point x="730" y="211"/>
      <point x="650" y="195"/>
      <point x="590" y="173" type="curve" smooth="yes"/>
      <point x="514" y="145"/>
      <point x="467" y="99"/>
      <point x="467" y="0" type="curve"/>
    </contour>
  </outline>
</glyph>
<glyph name="threequarters" format="1">
  <advance width="766"/>
  <unicode hex="00BE"/>
  <outline>
    <contour>
      <point x="153" y="-1" type="line"/>
      <point x="711" y="699" type="line"/>
      <point x="695" y="711" type="line"/>
      <point x="137" y="11" type="line"/>
    </contour>
    <contour>
      <point x="669" y="0" type="line"/>
      <point x="669" y="110" type="line"/>
      <point x="724" y="110" type="line"/>
      <point x="724" y="129" type="line"/>
      <point x="669" y="129" type="line"/>
      <point x="669" y="383" type="line"/>
      <point x="655" y="383" type="line"/>
      <point x="416" y="127" type="line"/>
      <point x="416" y="110" type="line"/>
      <point x="649" y="110" type="line"/>
      <point x="649" y="0" type="line"/>
    </contour>
    <contour>
      <point x="649" y="348" type="line"/>
      <point x="649" y="129" type="line"/>
      <point x="444" y="129" type="line"/>
    </contour>
    <contour>
      <point x="194" y="338" type="curve" smooth="yes"/>
      <point x="276" y="338"/>
      <point x="341" y="381"/>
      <point x="341" y="440" type="curve" smooth="yes"/>
      <point x="341" y="489"/>
      <point x="301" y="528"/>
      <point x="240" y="538" type="curve"/>
      <point x="299" y="551"/>
      <point x="329" y="580"/>
      <point x="329" y="625" type="curve" smooth="yes"/>
      <point x="329" y="685"/>
      <point x="268" y="731"/>
      <point x="186" y="731" type="curve" smooth="yes"/>
      <point x="125" y="731"/>
      <point x="72" y="705"/>
      <point x="52" y="665" type="curve"/>
      <point x="67" y="653" type="line"/>
      <point x="84" y="688"/>
      <point x="130" y="713"/>
      <point x="186" y="713" type="curve" smooth="yes"/>
      <point x="256" y="713"/>
      <point x="308" y="676"/>
      <point x="308" y="624" type="curve" smooth="yes"/>
      <point x="308" y="574"/>
      <point x="259" y="547"/>
      <point x="172" y="547" type="curve" smooth="yes"/>
      <point x="150" y="547" type="line"/>
      <point x="150" y="529" type="line"/>
      <point x="172" y="529" type="line" smooth="yes"/>
      <point x="261" y="529"/>
      <point x="321" y="495"/>
      <point x="321" y="442" type="curve" smooth="yes"/>
      <point x="321" y="393"/>
      <point x="266" y="357"/>
      <point x="194" y="357" type="curve" smooth="yes"/>
      <point x="121" y="357"/>
      <point x="64" y="396"/>
      <point x="61" y="441" type="curve"/>
      <point x="45" y="434" type="line"/>
      <point x="49" y="378"/>
      <point x="111" y="338"/>
    </contour>
  </outline>
</glyph>
<glyph name="Egrave" format="1">
  <advance width="617"/>
  <unicode hex="00C8"/>
  <outline>
    <contour>
      <point x="119" y="20" type="line"/>
      <point x="119" y="353" type="line"/>
      <point x="502" y="353" type="line"/>
      <point x="502" y="373" type="line"/>
      <point x="119" y="373" type="line"/>
      <point x="119" y="690" type="line"/>
      <point x="556" y="690" type="line"/>
      <point x="556" y="710" type="line"/>
      <point x="99" y="710" type="line"/>
      <point x="99" y="0" type="line"/>
      <point x="565" y="0" type="line"/>
      <point x="565" y="20" type="line"/>
    </contour>
    <contour>
      <point x="358" y="833" type="line"/>
      <point x="374" y="845" type="line"/>
      <point x="309" y="918" type="line"/>
      <point x="276" y="918" type="line"/>
    </contour>
  </outline>
</glyph>
<glyph name="Icircumflex" format="1">
  <advance width="218"/>
  <unicode hex="00CE"/>
  <outline>
    <contour>
      <point x="119" y="0" type="line"/>
      <point x="119" y="710" type="line"/>
      <point x="99" y="710" type="line"/>
      <point x="99" y="0" type="line"/>
    </contour>
    <contour>
      <point x="24" y="832" type="line"/>
      <point x="109" y="895" type="line"/>
      <point x="194" y="832" type="line"/>
      <point x="210" y="844" type="line"/>
      <point x="117" y="918" type="line"/>
      <point x="101" y="918" type="line"/>
      <point x="8" y="844" type="line"/>
    </contour>
  </outline>
</glyph>
<glyph name="Ntilde" format="1">
  <advance width="776"/>
  <unicode hex="00D1"/>
  <outline>
    <contour>
      <point x="654" y="0" type="line"/>
      <point x="677" y="0" type="line"/>
      <point x="677" y="710" type="line"/>
      <point x="657" y="710" type="line"/>
      <point x="657" y="29" type="line"/>
      <point x="114" y="710" type="line"/>
      <point x="99" y="710" type="line"/>
      <point x="99" y="0" type="line"/>
      <point x="119" y="0" type="line"/>
      <point x="119" y="671" type="line"/>
    </contour>
    <contour>
      <point x="454" y="851" type="curve" smooth="yes"/>
      <point x="527" y="851"/>
      <point x="535" y="909"/>
      <point x="535" y="918" type="curve"/>
      <point x="515" y="918" type="line"/>
      <point x="515" y="914"/>
      <point x="511" y="870"/>
      <point x="456" y="870" type="curve" smooth="yes"/>
      <point x="405" y="870"/>
      <point x="383" y="908"/>
      <point x="331" y="908" type="curve" smooth="yes"/>
      <point x="265" y="908"/>
      <point x="258" y="847"/>
      <point x="258" y="841" type="curve"/>
      <point x="278" y="841" type="line"/>
      <point x="278" y="847"/>
      <point x="286" y="889"/>
      <point x="329" y="889" type="curve" smooth="yes"/>
      <point x="370" y="889"/>
      <point x="395" y="851"/>
    </contour>
  </outline>
</glyph>
<glyph name="multiply" format="1">
  <advance width="440"/>
  <unicode hex="00D7"/>
  <outline>
    <contour>
      <point x="234" y="270" type="line"/>
      <point x="370" y="406" type="line"/>
      <point x="356" y="421" type="line"/>
      <point x="220" y="285" type="line"/>
      <point x="85" y="420" type="line"/>
      <point x="70" y="406" type="line"/>
      <point x="205" y="270" type="line"/>
      <point x="71" y="136" type="line"/>
      <point x="85" y="121" type="line"/>
      <point x="220" y="256" type="line"/>
      <point x="355" y="121" type="line"/>
      <point x="370" y="135" type="line"/>
    </contour>
  </outline>
</glyph>
<glyph name="Ucircumflex" format="1">
  <advance width="756"/>
  <unicode hex="00DB"/>
  <outline>
    <contour>
      <point x="378" y="15" type="curve" smooth="yes"/>
      <point x="168" y="15"/>
      <point x="108" y="184"/>
      <point x="108" y="355" type="curve" smooth="yes"/>
      <point x="108" y="710" type="line"/>
      <point x="88" y="710" type="line"/>
      <point x="88" y="355" type="line" smooth="yes"/>
      <point x="88" y="177"/>
      <point x="154" y="-5"/>
      <point x="379" y="-5" type="curve" smooth="yes"/>
      <point x="597" y="-5"/>
      <point x="669" y="167"/>
      <point x="669" y="355" type="curve" smooth="yes"/>
      <point x="669" y="710" type="line"/>
      <point x="649" y="710" type="line"/>
      <point x="649" y="355" type="line" smooth="yes"/>
      <point x="649" y="189"/>
      <point x="592" y="15"/>
    </contour>
    <contour>
      <point x="294" y="832" type="line"/>
      <point x="379" y="895" type="line"/>
      <point x="464" y="832" type="line"/>
      <point x="480" y="844" type="line"/>
      <point x="387" y="918" type="line"/>
      <point x="371" y="918" type="line"/>
      <point x="278" y="844" type="line"/>
    </contour>
  </outline>
</glyph>
<glyph name="Yacute" format="1">
  <advance width="641"/>
  <unicode hex="00DD"/>
  <outline>
    <contour>
      <point x="23" y="710" type="line"/>
      <point x="310" y="277" type="line"/>
      <point x="310" y="0" type="line"/>
      <point x="330" y="0" type="line"/>
      <point x="330" y="275" type="line"/>
      <point x="618" y="710" type="line"/>
      <point x="595" y="710" type="line"/>
      <point x="320" y="298" type="line"/>
      <point x="46" y="710" type="line"/>
    </contour>
    <contour>
      <point x="388" y="918" type="line"/>
      <point x="354" y="918" type="line"/>
      <point x="290" y="845" type="line"/>
      <point x="306" y="833" type="line"/>
    </contour>
  </outline>
</glyph>
<glyph name="ccedilla" format="1">
  <advance width="538"/>
  <unicode hex="00E7"/>
  <outline>
    <contour>
      <point x="46" y="262" type="curve" smooth="yes"/>
      <point x="46" y="119"/>
      <point x="150" y="0"/>
      <point x="279" y="-9" type="curve"/>
      <point x="237" y="-83" type="line"/>
      <point x="255" y="-77"/>
      <point x="290" y="-67"/>
      <point x="318" y="-67" type="curve" smooth="yes"/>
      <point x="346" y="-67"/>
      <point x="366" y="-77"/>
      <point x="366" y="-105" type="curve" smooth="yes"/>
      <point x="366" y="-132"/>
      <point x="347" y="-143"/>
      <point x="308" y="-143" type="curve" smooth="yes"/>
      <point x="274" y="-143"/>
      <point x="241" y="-134"/>
      <point x="221" y="-125" type="curve"/>
      <point x="211" y="-143" type="line"/>
      <point x="236" y="-153"/>
      <point x="270" y="-162"/>
      <point x="305" y="-162" type="curve" smooth="yes"/>
      <point x="355" y="-162"/>
      <point x="386" y="-145"/>
      <point x="386" y="-105" type="curve" smooth="yes"/>
      <point x="386" y="-70"/>
      <point x="363" y="-51"/>
      <point x="318" y="-51" type="curve" smooth="yes"/>
      <point x="308" y="-51"/>
      <point x="289" y="-52"/>
      <point x="276" y="-57" type="curve"/>
      <point x="303" y="-10" type="line"/>
      <point x="391" y="-7"/>
      <point x="475" y="44"/>
      <point x="498" y="113" type="curve"/>
      <point x="478" y="119" type="line"/>
      <point x="462" y="62"/>
      <point x="375" y="10"/>
      <point x="294" y="10" type="curve" smooth="yes"/>
      <point x="170" y="10"/>
      <point x="66" y="125"/>
      <point x="66" y="262" type="curve" smooth="yes"/>
      <point x="66" y="399"/>
      <point x="166" y="507"/>
      <point x="293" y="507" type="curve" smooth="yes"/>
      <point x="369" y="507"/>
      <point x="437" y="468"/>
      <point x="471" y="404" type="curve"/>
      <point x="491" y="411" type="line"/>
      <point x="456" y="484"/>
      <point x="383" y="527"/>
      <point x="296" y="527" type="curve" smooth="yes"/>
      <point x="155" y="527"/>
      <point x="46" y="411"/>
    </contour>
  </outline>
</glyph>
<glyph name="egrave" format="1">
  <advance width="576"/>
  <unicode hex="00E8"/>
  <outline>
    <contour>
      <point x="296" y="-10" type="curve" smooth="yes"/>
      <point x="386" y="-10"/>
      <point x="474" y="43"/>
      <point x="502" y="114" type="curve"/>
      <point x="483" y="119" type="line"/>
      <point x="454" y="55"/>
      <point x="377" y="10"/>
      <point x="297" y="10" type="curve" smooth="yes"/>
      <point x="176" y="10"/>
      <point x="76" y="114"/>
      <point x="66" y="248" type="curve"/>
      <point x="541" y="248" type="line"/>
      <point x="541" y="259" type="line"/>
      <point x="540" y="408"/>
      <point x="429" y="527"/>
      <point x="291" y="527" type="curve" smooth="yes"/>
      <point x="155" y="527"/>
      <point x="46" y="409"/>
      <point x="46" y="263" type="curve" smooth="yes"/>
      <point x="46" y="114"/>
      <point x="159" y="-10"/>
    </contour>
    <contour>
      <point x="66" y="268" type="line"/>
      <point x="73" y="405"/>
      <point x="169" y="507"/>
      <point x="292" y="507" type="curve" smooth="yes"/>
      <point x="415" y="507"/>
      <point x="511" y="407"/>
      <point x="520" y="268" type="curve"/>
    </contour>
    <contour>
      <point x="306" y="645" type="line"/>
      <point x="322" y="657" type="line"/>
      <point x="257" y="730" type="line"/>
      <point x="224" y="730" type="line"/>
    </contour>
  </outline>
</glyph>
<glyph name="igrave" format="1">
  <advance width="188"/>
  <unicode hex="00EC"/>
  <outline>
    <contour>
      <point x="104" y="0" type="line"/>
      <point x="104" y="519" type="line"/>
      <point x="84" y="519" type="line"/>
      <point x="84" y="0" type="line"/>
    </contour>
    <contour>
      <point x="108" y="645" type="line"/>
      <point x="124" y="657" type="line"/>
      <point x="59" y="730" type="line"/>
      <point x="26" y="730" type="line"/>
    </contour>
  </outline>
</glyph>
<glyph name="idieresis" format="1">
  <advance width="188"/>
  <unicode hex="00EF"/>
  <outline>
    <contour>
      <point x="104" y="0" type="line"/>
      <point x="104" y="519" type="line"/>
      <point x="84" y="519" type="line"/>
      <point x="84" y="0" type="line"/>
    </contour>
    <contour>
      <point x="46" y="653" type="line"/>
      <point x="46" y="730" type="line"/>
      <point x="26" y="730" type="line"/>
      <point x="26" y="653" type="line"/>
    </contour>
    <contour>
      <point x="162" y="653" type="line"/>
      <point x="162" y="730" type="line"/>
      <point x="142" y="730" type="line"/>
      <point x="142" y="653" type="line"/>
    </contour>
  </outline>
</glyph>
<glyph name="eth" format="1">
  <advance width="593"/>
  <unicode hex="00F0"/>
  <outline>
    <contour>
      <point x="461" y="713" type="line"/>
      <point x="364" y="649" type="line"/>
      <point x="332" y="676"/>
      <point x="294" y="703"/>
      <point x="249" y="730" type="curve"/>
      <point x="220" y="730" type="line"/>
      <point x="272" y="700"/>
      <point x="315" y="670"/>
      <point x="350" y="640" type="curve"/>
      <point x="230" y="561" type="line"/>
      <point x="240" y="547" type="line"/>
      <point x="364" y="629" type="line"/>
      <point x="480" y="526"/>
      <point x="512" y="425"/>
      <point x="522" y="330" type="curve"/>
      <point x="487" y="415"/>
      <point x="399" y="475"/>
      <point x="295" y="475" type="curve" smooth="yes"/>
      <point x="161" y="475"/>
      <point x="48" y="364"/>
      <point x="48" y="232" type="curve" smooth="yes"/>
      <point x="48" y="101"/>
      <point x="158" y="-10"/>
      <point x="295" y="-10" type="curve" smooth="yes"/>
      <point x="431" y="-10"/>
      <point x="542" y="108"/>
      <point x="542" y="246" type="curve" smooth="yes"/>
      <point x="542" y="385"/>
      <point x="521" y="513"/>
      <point x="378" y="638" type="curve"/>
      <point x="471" y="699" type="line"/>
    </contour>
    <contour>
      <point x="68" y="230" type="curve" smooth="yes"/>
      <point x="68" y="352"/>
      <point x="172" y="455"/>
      <point x="295" y="455" type="curve" smooth="yes"/>
      <point x="418" y="455"/>
      <point x="522" y="360"/>
      <point x="522" y="247" type="curve" smooth="yes"/>
      <point x="522" y="119"/>
      <point x="418" y="10"/>
      <point x="294" y="10" type="curve" smooth="yes"/>
      <point x="170" y="10"/>
      <point x="68" y="110"/>
    </contour>
  </outline>
</glyph>
<glyph name="otilde" format="1">
  <advance width="586"/>
  <unicode hex="00F5"/>
  <outline>
    <contour>
      <point x="293" y="-10" type="curve" smooth="yes"/>
      <point x="429" y="-10"/>
      <point x="540" y="113"/>
      <point x="540" y="258" type="curve" smooth="yes"/>
      <point x="540" y="404"/>
      <point x="427" y="527"/>
      <point x="293" y="527" type="curve" smooth="yes"/>
      <point x="159" y="527"/>
      <point x="46" y="404"/>
      <point x="46" y="258" type="curve" smooth="yes"/>
      <point x="46" y="113"/>
      <point x="156" y="-10"/>
    </contour>
    <contour>
      <point x="66" y="256" type="curve" smooth="yes"/>
      <point x="66" y="392"/>
      <point x="170" y="507"/>
      <point x="293" y="507" type="curve" smooth="yes"/>
      <point x="416" y="507"/>
      <point x="520" y="393"/>
      <point x="520" y="259" type="curve" smooth="yes"/>
      <point x="520" y="124"/>
      <point x="416" y="10"/>
      <point x="292" y="10" type="curve" smooth="yes"/>
      <point x="168" y="10"/>
      <point x="66" y="122"/>
    </contour>
    <contour>
      <point x="354" y="663" type="curve" smooth="yes"/>
      <point x="427" y="663"/>
      <point x="435" y="721"/>
      <point x="435" y="730" type="curve"/>
      <point x="415" y="730" type="line"/>
      <point x="415" y="726"/>
      <point x="411" y="682"/>
      <point x="356" y="682" type="curve" smooth="yes"/>
      <point x="305" y="682"/>
      <point x="283" y="720"/>
      <point x="231" y="720" type="curve" smooth="yes"/>
      <point x="165" y="720"/>
      <point x="158" y="659"/>
      <point x="158" y="653" type="curve"/>
      <point x="178" y="653" type="line"/>
      <point x="178" y="659"/>
      <point x="186" y="701"/>
      <point x="229" y="701" type="curve" smooth="yes"/>
      <point x="270" y="701"/>
      <point x="295" y="663"/>
    </contour>
  </outline>
</glyph>
<glyph name="ugrave" format="1">
  <advance width="576"/>
  <unicode hex="00F9"/>
  <outline>
    <contour>
      <point x="245" y="-10" type="curve" smooth="yes"/>
      <point x="338" y="-10"/>
      <point x="426" y="45"/>
      <point x="471" y="132" type="curve"/>
      <point x="471" y="40" type="line" smooth="yes"/>
      <point x="471" y="23"/>
      <point x="480" y="7"/>
      <point x="493" y="2" type="curve" smooth="yes"/>
      <point x="496" y="0"/>
      <point x="499" y="0"/>
      <point x="507" y="0" type="curve"/>
      <point x="507" y="20" type="line"/>
      <point x="497" y="20"/>
      <point x="491" y="28"/>
      <point x="491" y="40" type="curve" smooth="yes"/>
      <point x="491" y="519" type="line"/>
      <point x="471" y="519" type="line"/>
      <point x="471" y="189" type="line"/>
      <point x="440" y="85"/>
      <point x="345" y="10"/>
      <point x="245" y="10" type="curve" smooth="yes"/>
      <point x="146" y="10"/>
      <point x="98" y="81"/>
      <point x="98" y="228" type="curve" smooth="yes"/>
      <point x="98" y="519" type="line"/>
      <point x="78" y="519" type="line"/>
      <point x="78" y="228" type="line" smooth="yes"/>
      <point x="78" y="71"/>
      <point x="135" y="-10"/>
    </contour>
    <contour>
      <point x="296" y="645" type="line"/>
      <point x="312" y="657" type="line"/>
      <point x="247" y="730" type="line"/>
      <point x="214" y="730" type="line"/>
    </contour>
  </outline>
</glyph>
<glyph name="Amacron" format="1">
  <advance width="674"/>
  <unicode hex="0100"/>
  <outline>
    <contour>
      <point x="18" y="0" type="line"/>
      <point x="40" y="0" type="line"/>
      <point x="151" y="254" type="line"/>
      <point x="522" y="254" type="line"/>
      <point x="633" y="0" type="line"/>
      <point x="655" y="0" type="line"/>
      <point x="346" y="710" type="line"/>
      <point x="328" y="710" type="line"/>
    </contour>
    <contour>
      <point x="159" y="274" type="line"/>
      <point x="337" y="681" type="line"/>
      <point x="513" y="274" type="line"/>
    </contour>
    <contour>
      <point x="477" y="874" type="line"/>
      <point x="477" y="894" type="line"/>
      <point x="197" y="894" type="line"/>
      <point x="197" y="874" type="line"/>
    </contour>
  </outline>
</glyph>
<glyph name="Ccircumflex" format="1">
  <advance width="697"/>
  <unicode hex="0108"/>
  <outline>
    <contour>
      <point x="48" y="360" type="curve" smooth="yes"/>
      <point x="48" y="180"/>
      <point x="185" y="-6"/>
      <point x="378" y="-6" type="curve" smooth="yes"/>
      <point x="486" y="-6"/>
      <point x="610" y="52"/>
      <point x="659" y="159" type="curve"/>
      <point x="640" y="164" type="line"/>
      <point x="585" y="60"/>
      <point x="476" y="14"/>
      <point x="382" y="14" type="curve" smooth="yes"/>
      <point x="207" y="14"/>
      <point x="68" y="176"/>
      <point x="68" y="357" type="curve" smooth="yes"/>
      <point x="68" y="521"/>
      <point x="181" y="694"/>
      <point x="379" y="694" type="curve" smooth="yes"/>
      <point x="470" y="694"/>
      <point x="568" y="657"/>
      <point x="623" y="553" type="curve"/>
      <point x="642" y="559" type="line"/>
      <point x="599" y="649"/>
      <point x="509" y="714"/>
      <point x="383" y="714" type="curve" smooth="yes"/>
      <point x="170" y="714"/>
      <point x="48" y="530"/>
    </contour>
    <contour>
      <point x="296" y="832" type="line"/>
      <point x="381" y="895" type="line"/>
      <point x="466" y="832" type="line"/>
      <point x="482" y="844" type="line"/>
      <point x="389" y="918" type="line"/>
      <point x="373" y="918" type="line"/>
      <point x="280" y="844" type="line"/>
    </contour>
  </outline>
</glyph>
<glyph name="Dcroat" format="1">
  <advance width="718"/>
  <unicode hex="0110"/>
  <outline>
    <contour>
      <point x="334" y="0" type="line" smooth="yes"/>
      <point x="538" y="0"/>
      <point x="667" y="141"/>
      <point x="667" y="356" type="curve" smooth="yes"/>
      <point x="667" y="552"/>
      <point x="557" y="710"/>
      <point x="334" y="710" type="curve" smooth="yes"/>
      <point x="106" y="710" type="line"/>
      <point x="106" y="367" type="line"/>
      <point x="35" y="367" type="line"/>
      <point x="35" y="347" type="line"/>
      <point x="106" y="347" type="line"/>
      <point x="106" y="0" type="line"/>
    </contour>
    <contour>
      <point x="647" y="356" type="curve" smooth="yes"/>
      <point x="647" y="165"/>
      <point x="540" y="20"/>
      <point x="334" y="20" type="curve" smooth="yes"/>
      <point x="126" y="20" type="line"/>
      <point x="126" y="347" type="line"/>
      <point x="318" y="347" type="line"/>
      <point x="318" y="367" type="line"/>
      <point x="126" y="367" type="line"/>
      <point x="126" y="690" type="line"/>
      <point x="334" y="690" type="line" smooth="yes"/>
      <point x="535" y="690"/>
      <point x="647" y="550"/>
    </contour>
  </outline>
</glyph>
<glyph name="Edotaccent" format="1">
  <advance width="617"/>
  <unicode hex="0116"/>
  <outline>
    <contour>
      <point x="119" y="20" type="line"/>
      <point x="119" y="353" type="line"/>
      <point x="502" y="353" type="line"/>
      <point x="502" y="373" type="line"/>
      <point x="119" y="373" type="line"/>
      <point x="119" y="690" type="line"/>
      <point x="556" y="690" type="line"/>
      <point x="556" y="710" type="line"/>
      <point x="99" y="710" type="line"/>
      <point x="99" y="0" type="line"/>
      <point x="565" y="0" type="line"/>
      <point x="565" y="20" type="line"/>
    </contour>
    <contour>
      <point x="354" y="841" type="line"/>
      <point x="354" y="918" type="line"/>
      <point x="334" y="918" type="line"/>
      <point x="334" y="841" type="line"/>
    </contour>
  </outline>
</glyph>
<glyph name="Gdotaccent" format="1">
  <advance width="720"/>
  <unicode hex="0120"/>
  <outline>
    <contour>
      <point x="639" y="0" type="line"/>
      <point x="659" y="0" type="line"/>
      <point x="659" y="338" type="line"/>
      <point x="472" y="338" type="line"/>
      <point x="472" y="318" type="line"/>
      <point x="639" y="318" type="line"/>
      <point x="639" y="149" type="line"/>
      <point x="559" y="56"/>
      <point x="476" y="15"/>
      <point x="383" y="15" type="curve" smooth="yes"/>
      <point x="208" y="15"/>
      <point x="68" y="177"/>
      <point x="68" y="355" type="curve" smooth="yes"/>
      <point x="68" y="522"/>
      <point x="184" y="695"/>
      <point x="371" y="695" type="curve" smooth="yes"/>
      <point x="481" y="695"/>
      <point x="569" y="654"/>
      <point x="623" y="554" type="curve"/>
      <point x="642" y="560" type="line"/>
      <point x="597" y="650"/>
      <point x="518" y="715"/>
      <point x="371" y="715" type="curve" smooth="yes"/>
      <point x="182" y="715"/>
      <point x="48" y="540"/>
      <point x="48" y="355" type="curve" smooth="yes"/>
      <point x="48" y="180"/>
      <point x="186" y="-5"/>
      <point x="383" y="-5" type="curve" smooth="yes"/>
      <point x="479" y="-5"/>
      <point x="565" y="37"/>
      <point x="639" y="121" type="curve"/>
    </contour>
    <contour>
      <point x="380" y="841" type="line"/>
      <point x="380" y="918" type="line"/>
      <point x="360" y="918" type="line"/>
      <point x="360" y="841" type="line"/>
    </contour>
  </outline>
</glyph>
<glyph name="hcircumflex" format="1">
  <advance width="565"/>
  <unicode hex="0125"/>
  <outline>
    <contour>
      <point x="487" y="289" type="line" smooth="yes"/>
      <point x="487" y="445"/>
      <point x="430" y="527"/>
      <point x="322" y="527" type="curve" smooth="yes"/>
      <point x="233" y="527"/>
      <point x="147" y="471"/>
      <point x="104" y="385" type="curve"/>
      <point x="104" y="730" type="line"/>
      <point x="84" y="730" type="line"/>
      <point x="84" y="0" type="line"/>
      <point x="104" y="0" type="line"/>
      <point x="104" y="328" type="line"/>
      <point x="131" y="429"/>
      <point x="226" y="507"/>
      <point x="323" y="507" type="curve" smooth="yes"/>
      <point x="418" y="507"/>
      <point x="467" y="433"/>
      <point x="467" y="289" type="curve" smooth="yes"/>
      <point x="467" y="0" type="line"/>
      <point x="487" y="0" type="line"/>
    </contour>
    <contour>
      <point x="217" y="643" type="line"/>
      <point x="302" y="706" type="line"/>
      <point x="387" y="643" type="line"/>
      <point x="403" y="655" type="line"/>
      <point x="310" y="729" type="line"/>
      <point x="294" y="729" type="line"/>
      <point x="201" y="655" type="line"/>
    </contour>
  </outline>
</glyph>
<glyph name="Imacron" format="1">
  <advance width="218"/>
  <unicode hex="012A"/>
  <outline>
    <contour>
      <point x="119" y="0" type="line"/>
      <point x="119" y="710" type="line"/>
      <point x="99" y="710" type="line"/>
      <point x="99" y="0" type="line"/>
    </contour>
    <contour>
      <point x="249" y="874" type="line"/>
      <point x="249" y="894" type="line"/>
      <point x="-31" y="894" type="line"/>
      <point x="-31" y="874" type="line"/>
    </contour>
  </outline>
</glyph>
<glyph name="Ibreve" format="1">
  <advance width="218"/>
  <unicode hex="012C"/>
  <outline>
    <contour>
      <point x="119" y="0" type="line"/>
      <point x="119" y="710" type="line"/>
      <point x="99" y="710" type="line"/>
      <point x="99" y="0" type="line"/>
    </contour>
    <contour>
      <point x="109" y="858" type="curve" smooth="yes"/>
      <point x="81" y="858"/>
      <point x="54" y="888"/>
      <point x="54" y="918" type="curve"/>
      <point x="35" y="918" type="line"/>
      <point x="35" y="877"/>
      <point x="70" y="841"/>
      <point x="109" y="841" type="curve" smooth="yes"/>
      <point x="148" y="841"/>
      <point x="183" y="877"/>
      <point x="183" y="918" type="curve"/>
      <point x="165" y="918" type="line"/>
      <point x="161" y="885"/>
      <point x="136" y="858"/>
    </contour>
  </outline>
</glyph>
<glyph name="iogonek" format="1">
  <advance width="189"/>
  <unicode hex="012F"/>
  <outline>
    <contour>
      <point x="56" y="-159" type="curve"/>
      <point x="68" y="-142" type="line"/>
      <point x="39" y="-136"/>
      <point x="24" y="-120"/>
      <point x="24" y="-95" type="curve" smooth="yes"/>
      <point x="24" y="-65"/>
      <point x="45" y="-41"/>
      <point x="105" y="0" type="curve"/>
      <point x="105" y="519" type="line"/>
      <point x="85" y="519" type="line"/>
      <point x="85" y="8" type="line"/>
      <point x="27" y="-35"/>
      <point x="4" y="-64"/>
      <point x="4" y="-98" type="curve" smooth="yes"/>
      <point x="4" y="-128"/>
      <point x="23" y="-151"/>
    </contour>
    <contour>
      <point x="105" y="653" type="line"/>
      <point x="105" y="730" type="line"/>
      <point x="85" y="730" type="line"/>
      <point x="85" y="653" type="line"/>
    </contour>
  </outline>
</glyph>
<glyph name="jcircumflex" format="1">
  <advance width="188"/>
  <unicode hex="0135"/>
  <outline>
    <contour>
      <point x="-29" y="-170" type="curve" smooth="yes"/>
      <point x="33" y="-170"/>
      <point x="104" y="-114"/>
      <point x="104" y="-36" type="curve" smooth="yes"/>
      <point x="104" y="519" type="line"/>
      <point x="84" y="519" type="line"/>
      <point x="84" y="-36" type="line" smooth="yes"/>
      <point x="84" y="-100"/>
      <point x="25" y="-150"/>
      <point x="-30" y="-150" type="curve" smooth="yes"/>
      <point x="-58" y="-150"/>
      <point x="-89" y="-145"/>
      <point x="-113" y="-124" type="curve"/>
      <point x="-129" y="-136" type="line"/>
      <point x="-103" y="-162"/>
      <point x="-68" y="-170"/>
    </contour>
    <contour>
      <point x="9" y="644" type="line"/>
      <point x="94" y="707" type="line"/>
      <point x="179" y="644" type="line"/>
      <point x="195" y="656" type="line"/>
      <point x="102" y="730" type="line"/>
      <point x="86" y="730" type="line"/>
      <point x="-7" y="656" type="line"/>
    </contour>
  </outline>
</glyph>
<glyph name="Nacute" format="1">
  <advance width="776"/>
  <unicode hex="0143"/>
  <outline>
    <contour>
      <point x="654" y="0" type="line"/>
      <point x="677" y="0" type="line"/>
      <point x="677" y="710" type="line"/>
      <point x="657" y="710" type="line"/>
      <point x="657" y="29" type="line"/>
      <point x="114" y="710" type="line"/>
      <point x="99" y="710" type="line"/>
      <point x="99" y="0" type="line"/>
      <point x="119" y="0" type="line"/>
      <point x="119" y="671" type="line"/>
    </contour>
    <contour>
      <point x="461" y="918" type="line"/>
      <point x="427" y="918" type="line"/>
      <point x="363" y="845" type="line"/>
      <point x="379" y="833" type="line"/>
    </contour>
  </outline>
</glyph>
<glyph name="Ncommaaccent" format="1">
  <advance width="776"/>
  <unicode hex="0145"/>
  <outline>
    <contour>
      <point x="654" y="0" type="line"/>
      <point x="677" y="0" type="line"/>
      <point x="677" y="710" type="line"/>
      <point x="657" y="710" type="line"/>
      <point x="657" y="29" type="line"/>
      <point x="114" y="710" type="line"/>
      <point x="99" y="710" type="line"/>
      <point x="99" y="0" type="line"/>
      <point x="119" y="0" type="line"/>
      <point x="119" y="671" type="line"/>
    </contour>
    <contour>
      <point x="391" y="-167" type="line"/>
      <point x="404" y="-109" type="line"/>
      <point x="404" y="-50" type="line"/>
      <point x="378" y="-50" type="line"/>
      <point x="378" y="-109" type="line"/>
      <point x="387" y="-109" type="line"/>
      <point x="377" y="-167" type="line"/>
    </contour>
  </outline>
</glyph>
<glyph name="obreve" format="1">
  <advance width="586"/>
  <unicode hex="014F"/>
  <outline>
    <contour>
      <point x="293" y="-10" type="curve" smooth="yes"/>
      <point x="429" y="-10"/>
      <point x="540" y="113"/>
      <point x="540" y="258" type="curve" smooth="yes"/>
      <point x="540" y="404"/>
      <point x="427" y="527"/>
      <point x="293" y="527" type="curve" smooth="yes"/>
      <point x="159" y="527"/>
      <point x="46" y="404"/>
      <point x="46" y="258" type="curve" smooth="yes"/>
      <point x="46" y="113"/>
      <point x="156" y="-10"/>
    </contour>
    <contour>
      <point x="66" y="256" type="curve" smooth="yes"/>
      <point x="66" y="392"/>
      <point x="170" y="507"/>
      <point x="293" y="507" type="curve" smooth="yes"/>
      <point x="416" y="507"/>
      <point x="520" y="393"/>
      <point x="520" y="259" type="curve" smooth="yes"/>
      <point x="520" y="124"/>
      <point x="416" y="10"/>
      <point x="292" y="10" type="curve" smooth="yes"/>
      <point x="168" y="10"/>
      <point x="66" y="122"/>
    </contour>
    <contour>
      <point x="293" y="670" type="curve" smooth="yes"/>
      <point x="265" y="670"/>
      <point x="238" y="700"/>
      <point x="238" y="730" type="curve"/>
      <point x="219" y="730" type="line"/>
      <point x="219" y="689"/>
      <point x="254" y="653"/>
      <point x="293" y="653" type="curve" smooth="yes"/>
      <point x="332" y="653"/>
      <point x="367" y="689"/>
      <point x="367" y="730" type="curve"/>
      <point x="349" y="730" type="line"/>
      <point x="345" y="697"/>
      <point x="320" y="670"/>
    </contour>
  </outline>
</glyph>
<glyph name="Rcommaaccent" format="1">
  <advance width="642"/>
  <unicode hex="0156"/>
  <outline>
    <contour>
      <point x="119" y="0" type="line"/>
      <point x="119" y="279" type="line"/>
      <point x="383" y="279" type="line"/>
      <point x="563" y="0" type="line"/>
      <point x="587" y="0" type="line"/>
      <point x="407" y="279" type="line"/>
      <point x="514" y="287"/>
      <point x="588" y="385"/>
      <point x="588" y="495" type="curve" smooth="yes"/>
      <point x="588" y="601"/>
      <point x="504" y="710"/>
      <point x="388" y="710" type="curve" smooth="yes"/>
      <point x="99" y="710" type="line"/>
      <point x="99" y="0" type="line"/>
    </contour>
    <contour>
      <point x="119" y="690" type="line"/>
      <point x="388" y="690" type="line" smooth="yes"/>
      <point x="488" y="690"/>
      <point x="568" y="596"/>
      <point x="568" y="495" type="curve" smooth="yes"/>
      <point x="568" y="397"/>
      <point x="502" y="299"/>
      <point x="395" y="299" type="curve" smooth="yes"/>
      <point x="119" y="299" type="line"/>
    </contour>
    <contour>
      <point x="313" y="-167" type="line"/>
      <point x="326" y="-109" type="line"/>
      <point x="326" y="-50" type="line"/>
      <point x="300" y="-50" type="line"/>
      <point x="300" y="-109" type="line"/>
      <point x="309" y="-109" type="line"/>
      <point x="299" y="-167" type="line"/>
    </contour>
  </outline>
</glyph>
<glyph name="rcommaaccent" format="1">
  <advance width="323"/>
  <unicode hex="0157"/>
  <outline>
    <contour>
      <point x="306" y="519" type="line"/>
      <point x="298" y="519"/>
      <point x="286" y="518"/>
      <point x="273" y="517" type="curve" smooth="yes"/>
      <point x="205" y="509"/>
      <point x="140" y="458"/>
      <point x="104" y="385" type="curve"/>
      <point x="104" y="519" type="line"/>
      <point x="84" y="519" type="line"/>
      <point x="84" y="0" type="line"/>
      <point x="104" y="0" type="line"/>
      <point x="104" y="328" type="line"/>
      <point x="132" y="431"/>
      <point x="208" y="495"/>
      <point x="306" y="499" type="curve"/>
    </contour>
    <contour>
      <point x="91" y="-167" type="line"/>
      <point x="104" y="-109" type="line"/>
      <point x="104" y="-50" type="line"/>
      <point x="78" y="-50" type="line"/>
      <point x="78" y="-109" type="line"/>
      <point x="87" y="-109" type="line"/>
      <point x="77" y="-167" type="line"/>
    </contour>
  </outline>
</glyph>
<glyph name="rcaron" format="1">
  <advance width="323"/>
  <unicode hex="0159"/>
  <outline>
    <contour>
      <point x="306" y="519" type="line"/>
      <point x="298" y="519"/>
      <point x="286" y="518"/>
      <point x="273" y="517" type="curve" smooth="yes"/>
      <point x="205" y="509"/>
      <point x="140" y="458"/>
      <point x="104" y="385" type="curve"/>
      <point x="104" y="519" type="line"/>
      <point x="84" y="519" type="line"/>
      <point x="84" y="0" type="line"/>
      <point x="104" y="0" type="line"/>
      <point x="104" y="328" type="line"/>
      <point x="132" y="431"/>
      <point x="208" y="495"/>
      <point x="306" y="499" type="curve"/>
    </contour>
    <contour>
      <point x="75" y="718" type="line"/>
      <point x="168" y="644" type="line"/>
      <point x="184" y="644" type="line"/>
      <point x="277" y="718" type="line"/>
      <point x="261" y="730" type="line"/>
      <point x="176" y="667" type="line"/>
      <point x="91" y="730" type="line"/>
    </contour>
  </outline>
</glyph>
<glyph name="uni015E" format="1">
  <advance width="604"/>
  <unicode hex="015E"/>
  <outline>
    <contour>
      <point x="232" y="-143" type="line"/>
      <point x="257" y="-153"/>
      <point x="291" y="-162"/>
      <point x="326" y="-162" type="curve" smooth="yes"/>
      <point x="376" y="-162"/>
      <point x="407" y="-145"/>
      <point x="407" y="-105" type="curve" smooth="yes"/>
      <point x="407" y="-70"/>
      <point x="384" y="-51"/>
      <point x="339" y="-51" type="curve" smooth="yes"/>
      <point x="329" y="-51"/>
      <point x="310" y="-52"/>
      <point x="297" y="-57" type="curve"/>
      <point x="327" y="-5" type="line"/>
      <point x="475" y="-2"/>
      <point x="566" y="61"/>
      <point x="566" y="174" type="curve" smooth="yes"/>
      <point x="566" y="299"/>
      <point x="466" y="333"/>
      <point x="308" y="365" type="curve" smooth="yes"/>
      <point x="150" y="397"/>
      <point x="84" y="424"/>
      <point x="84" y="526" type="curve" smooth="yes"/>
      <point x="84" y="629"/>
      <point x="152" y="696"/>
      <point x="314" y="696" type="curve" smooth="yes"/>
      <point x="398" y="696"/>
      <point x="454" y="678"/>
      <point x="510" y="616" type="curve"/>
      <point x="523" y="630" type="line"/>
      <point x="467" y="691"/>
      <point x="402" y="715"/>
      <point x="312" y="715" type="curve" smooth="yes"/>
      <point x="161" y="715"/>
      <point x="64" y="647"/>
      <point x="64" y="524" type="curve" smooth="yes"/>
      <point x="64" y="406"/>
      <point x="152" y="376"/>
      <point x="309" y="346" type="curve" smooth="yes"/>
      <point x="473" y="314"/>
      <point x="546" y="277"/>
      <point x="546" y="171" type="curve" smooth="yes"/>
      <point x="546" y="65"/>
      <point x="458" y="12"/>
      <point x="317" y="12" type="curve" smooth="yes"/>
      <point x="209" y="12"/>
      <point x="127" y="44"/>
      <point x="55" y="118" type="curve"/>
      <point x="40" y="105" type="line"/>
      <point x="113" y="33"/>
      <point x="195" y="-2"/>
      <point x="303" y="-5" type="curve"/>
      <point x="258" y="-83" type="line"/>
      <point x="276" y="-77"/>
      <point x="311" y="-67"/>
      <point x="339" y="-67" type="curve" smooth="yes"/>
      <point x="367" y="-67"/>
      <point x="387" y="-77"/>
      <point x="387" y="-105" type="curve" smooth="yes"/>
      <point x="387" y="-132"/>
      <point x="368" y="-143"/>
      <point x="329" y="-143" type="curve" smooth="yes"/>
      <point x="295" y="-143"/>
      <point x="262" y="-134"/>
      <point x="242" y="-125" type="curve"/>
    </contour>
  </outline>
</glyph>
<glyph name="uni0163" format="1">
  <advance width="295"/>
  <unicode hex="0163"/>
  <outline>
    <contour>
      <point x="105" y="-143" type="line"/>
      <point x="130" y="-153"/>
      <point x="164" y="-162"/>
      <point x="199" y="-162" type="curve" smooth="yes"/>
      <point x="249" y="-162"/>
      <point x="280" y="-145"/>
      <point x="280" y="-105" type="curve" smooth="yes"/>
      <point x="280" y="-70"/>
      <point x="257" y="-51"/>
      <point x="212" y="-51" type="curve" smooth="yes"/>
      <point x="202" y="-51"/>
      <point x="183" y="-52"/>
      <point x="170" y="-57" type="curve"/>
      <point x="200" y="-5" type="line"/>
      <point x="250" y="-2"/>
      <point x="285" y="23"/>
      <point x="286" y="24" type="curve"/>
      <point x="275" y="40" type="line"/>
      <point x="273" y="38"/>
      <point x="237" y="15"/>
      <point x="191" y="15" type="curve" smooth="yes"/>
      <point x="156" y="15"/>
      <point x="124" y="36"/>
      <point x="121" y="75" type="curve"/>
      <point x="121" y="499" type="line"/>
      <point x="246" y="499" type="line"/>
      <point x="246" y="519" type="line"/>
      <point x="121" y="519" type="line"/>
      <point x="121" y="700" type="line"/>
      <point x="101" y="700" type="line"/>
      <point x="101" y="519" type="line"/>
      <point x="26" y="519" type="line"/>
      <point x="26" y="499" type="line"/>
      <point x="101" y="499" type="line"/>
      <point x="101" y="75" type="line" smooth="yes"/>
      <point x="101" y="32"/>
      <point x="135" y="2"/>
      <point x="176" y="-4" type="curve"/>
      <point x="131" y="-83" type="line"/>
      <point x="149" y="-77"/>
      <point x="184" y="-67"/>
      <point x="212" y="-67" type="curve" smooth="yes"/>
      <point x="240" y="-67"/>
      <point x="260" y="-77"/>
      <point x="260" y="-105" type="curve" smooth="yes"/>
      <point x="260" y="-132"/>
      <point x="241" y="-143"/>
      <point x="202" y="-143" type="curve" smooth="yes"/>
      <point x="168" y="-143"/>
      <point x="135" y="-134"/>
      <point x="115" y="-125" type="curve"/>
    </contour>
  </outline>
</glyph>
<glyph name="Tbar" format="1">
  <advance width="640"/>
  <unicode hex="0166"/>
  <outline>
    <contour>
      <point x="602" y="710" type="line"/>
      <point x="38" y="710" type="line"/>
      <point x="38" y="690" type="line"/>
      <point x="310" y="690" type="line"/>
      <point x="310" y="424" type="line"/>
      <point x="68" y="424" type="line"/>
      <point x="68" y="404" type="line"/>
      <point x="310" y="404" type="line"/>
      <point x="310" y="0" type="line"/>
      <point x="330" y="0" type="line"/>
      <point x="330" y="404" type="line"/>
      <point x="572" y="404" type="line"/>
      <point x="572" y="424" type="line"/>
      <point x="330" y="424" type="line"/>
      <point x="330" y="690" type="line"/>
      <point x="602" y="690" type="line"/>
    </contour>
  </outline>
</glyph>
<glyph name="Utilde" format="1">
  <advance width="756"/>
  <unicode hex="0168"/>
  <outline>
    <contour>
      <point x="378" y="15" type="curve" smooth="yes"/>
      <point x="168" y="15"/>
      <point x="108" y="184"/>
      <point x="108" y="355" type="curve" smooth="yes"/>
      <point x="108" y="710" type="line"/>
      <point x="88" y="710" type="line"/>
      <point x="88" y="355" type="line" smooth="yes"/>
      <point x="88" y="177"/>
      <point x="154" y="-5"/>
      <point x="379" y="-5" type="curve" smooth="yes"/>
      <point x="597" y="-5"/>
      <point x="669" y="167"/>
      <point x="669" y="355" type="curve" smooth="yes"/>
      <point x="669" y="710" type="line"/>
      <point x="649" y="710" type="line"/>
      <point x="649" y="355" type="line" smooth="yes"/>
      <point x="649" y="189"/>
      <point x="592" y="15"/>
    </contour>
    <contour>
      <point x="440" y="851" type="curve" smooth="yes"/>
      <point x="513" y="851"/>
      <point x="521" y="909"/>
      <point x="521" y="918" type="curve"/>
      <point x="501" y="918" type="line"/>
      <point x="501" y="914"/>
      <point x="497" y="870"/>
      <point x="442" y="870" type="curve" smooth="yes"/>
      <point x="391" y="870"/>
      <point x="369" y="908"/>
      <point x="317" y="908" type="curve" smooth="yes"/>
      <point x="251" y="908"/>
      <point x="244" y="847"/>
      <point x="244" y="841" type="curve"/>
      <point x="264" y="841" type="line"/>
      <point x="264" y="847"/>
      <point x="272" y="889"/>
      <point x="315" y="889" type="curve" smooth="yes"/>
      <point x="356" y="889"/>
      <point x="381" y="851"/>
    </contour>
  </outline>
</glyph>
<glyph name="ubreve" format="1">
  <advance width="576"/>
  <unicode hex="016D"/>
  <outline>
    <contour>
      <point x="245" y="-10" type="curve" smooth="yes"/>
      <point x="338" y="-10"/>
      <point x="426" y="45"/>
      <point x="471" y="132" type="curve"/>
      <point x="471" y="40" type="line" smooth="yes"/>
      <point x="471" y="23"/>
      <point x="480" y="7"/>
      <point x="493" y="2" type="curve" smooth="yes"/>
      <point x="496" y="0"/>
      <point x="499" y="0"/>
      <point x="507" y="0" type="curve"/>
      <point x="507" y="20" type="line"/>
      <point x="497" y="20"/>
      <point x="491" y="28"/>
      <point x="491" y="40" type="curve" smooth="yes"/>
      <point x="491" y="519" type="line"/>
      <point x="471" y="519" type="line"/>
      <point x="471" y="189" type="line"/>
      <point x="440" y="85"/>
      <point x="345" y="10"/>
      <point x="245" y="10" type="curve" smooth="yes"/>
      <point x="146" y="10"/>
      <point x="98" y="81"/>
      <point x="98" y="228" type="curve" smooth="yes"/>
      <point x="98" y="519" type="line"/>
      <point x="78" y="519" type="line"/>
      <point x="78" y="228" type="line" smooth="yes"/>
      <point x="78" y="71"/>
      <point x="135" y="-10"/>
    </contour>
    <contour>
      <point x="282" y="670" type="curve" smooth="yes"/>
      <point x="254" y="670"/>
      <point x="227" y="700"/>
      <point x="227" y="730" type="curve"/>
      <point x="208" y="730" type="line"/>
      <point x="208" y="689"/>
      <point x="243" y="653"/>
      <point x="282" y="653" type="curve" smooth="yes"/>
      <point x="321" y="653"/>
      <point x="356" y="689"/>
      <point x="356" y="730" type="curve"/>
      <point x="338" y="730" type="line"/>
      <point x="334" y="697"/>
      <point x="309" y="670"/>
    </contour>
  </outline>
</glyph>
<glyph name="uring" format="1">
  <advance width="576"/>
  <unicode hex="016F"/>
  <outline>
    <contour>
      <point x="245" y="-10" type="curve" smooth="yes"/>
      <point x="338" y="-10"/>
      <point x="426" y="45"/>
      <point x="471" y="132" type="curve"/>
      <point x="471" y="40" type="line" smooth="yes"/>
      <point x="471" y="23"/>
      <point x="480" y="7"/>
      <point x="493" y="2" type="curve" smooth="yes"/>
      <point x="496" y="0"/>
      <point x="499" y="0"/>
      <point x="507" y="0" type="curve"/>
      <point x="507" y="20" type="line"/>
      <point x="497" y="20"/>
      <point x="491" y="28"/>
      <point x="491" y="40" type="curve" smooth="yes"/>
      <point x="491" y="519" type="line"/>
      <point x="471" y="519" type="line"/>
      <point x="471" y="189" type="line"/>
      <point x="440" y="85"/>
      <point x="345" y="10"/>
      <point x="245" y="10" type="curve" smooth="yes"/>
      <point x="146" y="10"/>
      <point x="98" y="81"/>
      <point x="98" y="228" type="curve" smooth="yes"/>
      <point x="98" y="519" type="line"/>
      <point x="78" y="519" type="line"/>
      <point x="78" y="228" type="line" smooth="yes"/>
      <point x="78" y="71"/>
      <point x="135" y="-10"/>
    </contour>
    <contour>
      <point x="225" y="673" type="curve" smooth="yes"/>
      <point x="225" y="641"/>
      <point x="250" y="616"/>
      <point x="282" y="616" type="curve" smooth="yes"/>
      <point x="314" y="616"/>
      <point x="339" y="641"/>
      <point x="339" y="673" type="curve" smooth="yes"/>
      <point x="339" y="705"/>
      <point x="314" y="730"/>
      <point x="282" y="730" type="curve" smooth="yes"/>
      <point x="250" y="730"/>
      <point x="225" y="705"/>
    </contour>
    <contour>
      <point x="282" y="714" type="curve" smooth="yes"/>
      <point x="304" y="714"/>
      <point x="323" y="698"/>
      <point x="323" y="673" type="curve" smooth="yes"/>
      <point x="323" y="649"/>
      <point x="302" y="632"/>
      <point x="282" y="632" type="curve" smooth="yes"/>
      <point x="259" y="632"/>
      <point x="241" y="650"/>
      <point x="241" y="673" type="curve" smooth="yes"/>
      <point x="241" y="698"/>
      <point x="260" y="714"/>
    </contour>
  </outline>
</glyph>
<glyph name="Ydieresis" format="1">
  <advance width="641"/>
  <unicode hex="0178"/>
  <outline>
    <contour>
      <point x="23" y="710" type="line"/>
      <point x="310" y="277" type="line"/>
      <point x="310" y="0" type="line"/>
      <point x="330" y="0" type="line"/>
      <point x="330" y="275" type="line"/>
      <point x="618" y="710" type="line"/>
      <point x="595" y="710" type="line"/>
      <point x="320" y="298" type="line"/>
      <point x="46" y="710" type="line"/>
    </contour>
    <contour>
      <point x="272" y="841" type="line"/>
      <point x="272" y="918" type="line"/>
      <point x="252" y="918" type="line"/>
      <point x="252" y="841" type="line"/>
    </contour>
    <contour>
      <point x="388" y="841" type="line"/>
      <point x="388" y="918" type="line"/>
      <point x="368" y="918" type="line"/>
      <point x="368" y="841" type="line"/>
    </contour>
  </outline>
</glyph>
<glyph name="uni01C4" format="1">
  <advance width="1335"/>
  <unicode hex="01C4"/>
  <outline>
    <contour>
      <point x="327" y="0" type="line" smooth="yes"/>
      <point x="531" y="0"/>
      <point x="660" y="141"/>
      <point x="660" y="356" type="curve" smooth="yes"/>
      <point x="660" y="552"/>
      <point x="550" y="710"/>
      <point x="327" y="710" type="curve" smooth="yes"/>
      <point x="99" y="710" type="line"/>
      <point x="99" y="0" type="line"/>
    </contour>
    <contour>
      <point x="640" y="356" type="curve" smooth="yes"/>
      <point x="640" y="165"/>
      <point x="533" y="20"/>
      <point x="327" y="20" type="curve" smooth="yes"/>
      <point x="119" y="20" type="line"/>
      <point x="119" y="690" type="line"/>
      <point x="327" y="690" type="line" smooth="yes"/>
      <point x="528" y="690"/>
      <point x="640" y="550"/>
    </contour>
    <contour>
      <point x="739" y="0" type="line"/>
      <point x="1302" y="0" type="line"/>
      <point x="1302" y="20" type="line"/>
      <point x="764" y="20" type="line"/>
      <point x="1306" y="690" type="line"/>
      <point x="1306" y="710" type="line"/>
      <point x="744" y="710" type="line"/>
      <point x="744" y="690" type="line"/>
      <point x="1281" y="690" type="line"/>
      <point x="739" y="20" type="line"/>
    </contour>
    <contour>
      <point x="940" y="906" type="line"/>
      <point x="1033" y="832" type="line"/>
      <point x="1049" y="832" type="line"/>
      <point x="1142" y="906" type="line"/>
      <point x="1126" y="918" type="line"/>
      <point x="1041" y="855" type="line"/>
      <point x="956" y="918" type="line"/>
    </contour>
  </outline>
</glyph>
<glyph name="uni01C7" format="1">
  <advance width="1052"/>
  <unicode hex="01C7"/>
  <outline>
    <contour>
      <point x="565" y="0" type="line"/>
      <point x="565" y="20" type="line"/>
      <point x="119" y="20" type="line"/>
      <point x="119" y="710" type="line"/>
      <point x="99" y="710" type="line"/>
      <point x="99" y="0" type="line"/>
    </contour>
    <contour>
      <point x="598" y="33" type="line"/>
      <point x="640" y="4"/>
      <point x="691" y="-11"/>
      <point x="752" y="-11" type="curve" smooth="yes"/>
      <point x="939" y="-11"/>
      <point x="962" y="133"/>
      <point x="962" y="349" type="curve" smooth="yes"/>
      <point x="962" y="710" type="line"/>
      <point x="942" y="710" type="line"/>
      <point x="942" y="349" type="line" smooth="yes"/>
      <point x="942" y="137"/>
      <point x="922" y="9"/>
      <point x="752" y="9" type="curve" smooth="yes"/>
      <point x="695" y="9"/>
      <point x="647" y="23"/>
      <point x="609" y="49" type="curve"/>
    </contour>
  </outline>
</glyph>
<glyph name="uni01C8" format="1">
  <advance width="775"/>
  <unicode hex="01C8"/>
  <outline>
    <contour>
      <point x="565" y="0" type="line"/>
      <point x="565" y="20" type="line"/>
      <point x="119" y="20" type="line"/>
      <point x="119" y="710" type="line"/>
      <point x="99" y="710" type="line"/>
      <point x="99" y="0" type="line"/>
    </contour>
    <contour>
      <point x="558" y="-170" type="curve" smooth="yes"/>
      <point x="620" y="-170"/>
      <point x="691" y="-114"/>
      <point x="691" y="-36" type="curve" smooth="yes"/>
      <point x="691" y="519" type="line"/>
      <point x="671" y="519" type="line"/>
      <point x="671" y="-36" type="line" smooth="yes"/>
      <point x="671" y="-100"/>
      <point x="612" y="-150"/>
      <point x="557" y="-150" type="curve" smooth="yes"/>
      <point x="529" y="-150"/>
      <point x="498" y="-145"/>
      <point x="474" y="-124" type="curve"/>
      <point x="458" y="-136" type="line"/>
      <point x="484" y="-162"/>
      <point x="519" y="-170"/>
    </contour>
    <contour>
      <point x="691" y="653" type="line"/>
      <point x="691" y="730" type="line"/>
      <point x="671" y="730" type="line"/>
      <point x="671" y="653" type="line"/>
    </contour>
  </outline>
</glyph>
<glyph name="Oogonek" format="1">
  <advance width="757"/>
  <unicode hex="01EA"/>
  <outline>
    <contour>
      <point x="349" y="-163" type="curve"/>
      <point x="361" y="-146" type="line"/>
      <point x="332" y="-140"/>
      <point x="317" y="-124"/>
      <point x="317" y="-99" type="curve" smooth="yes"/>
      <point x="317" y="-69"/>
      <point x="338" y="-45"/>
      <point x="397" y="-4" type="curve"/>
      <point x="574" y="6"/>
      <point x="709" y="170"/>
      <point x="709" y="355" type="curve" smooth="yes"/>
      <point x="709" y="532"/>
      <point x="575" y="715"/>
      <point x="379" y="715" type="curve" smooth="yes"/>
      <point x="192" y="715"/>
      <point x="48" y="544"/>
      <point x="48" y="355" type="curve" smooth="yes"/>
      <point x="48" y="177"/>
      <point x="177" y="4"/>
      <point x="366" y="-4" type="curve"/>
      <point x="317" y="-42"/>
      <point x="297" y="-71"/>
      <point x="297" y="-102" type="curve" smooth="yes"/>
      <point x="297" y="-132"/>
      <point x="316" y="-155"/>
    </contour>
    <contour>
      <point x="68" y="355" type="curve" smooth="yes"/>
      <point x="68" y="523"/>
      <point x="194" y="695"/>
      <point x="379" y="695" type="curve" smooth="yes"/>
      <point x="555" y="695"/>
      <point x="689" y="532"/>
      <point x="689" y="355" type="curve" smooth="yes"/>
      <point x="689" y="188"/>
      <point x="564" y="15"/>
      <point x="379" y="15" type="curve" smooth="yes"/>
      <point x="199" y="15"/>
      <point x="68" y="178"/>
    </contour>
  </outline>
</glyph>
<glyph name="oogonek" format="1">
  <advance width="586"/>
  <unicode hex="01EB"/>
  <outline>
    <contour>
      <point x="266" y="-168" type="curve"/>
      <point x="278" y="-151" type="line"/>
      <point x="249" y="-145"/>
      <point x="234" y="-129"/>
      <point x="234" y="-104" type="curve" smooth="yes"/>
      <point x="234" y="-74"/>
      <point x="255" y="-50"/>
      <point x="315" y="-9" type="curve"/>
      <point x="440" y="3"/>
      <point x="540" y="121"/>
      <point x="540" y="258" type="curve" smooth="yes"/>
      <point x="540" y="404"/>
      <point x="427" y="527"/>
      <point x="293" y="527" type="curve" smooth="yes"/>
      <point x="159" y="527"/>
      <point x="46" y="404"/>
      <point x="46" y="258" type="curve" smooth="yes"/>
      <point x="46" y="116"/>
      <point x="151" y="-4"/>
      <point x="283" y="-10" type="curve"/>
      <point x="234" y="-48"/>
      <point x="214" y="-76"/>
      <point x="214" y="-107" type="curve" smooth="yes"/>
      <point x="214" y="-137"/>
      <point x="233" y="-160"/>
    </contour>
    <contour>
      <point x="66" y="256" type="curve" smooth="yes"/>
      <point x="66" y="392"/>
      <point x="170" y="507"/>
      <point x="293" y="507" type="curve" smooth="yes"/>
      <point x="416" y="507"/>
      <point x="520" y="393"/>
      <point x="520" y="259" type="curve" smooth="yes"/>
      <point x="520" y="124"/>
      <point x="416" y="10"/>
      <point x="292" y="10" type="curve" smooth="yes"/>
      <point x="168" y="10"/>
      <point x="66" y="122"/>
    </contour>
  </outline>
</glyph>
<glyph name="uni01F2" format="1">
  <advance width="1199"/>
  <unicode hex="01F2"/>
  <outline>
    <contour>
      <point x="327" y="0" type="line" smooth="yes"/>
      <point x="531" y="0"/>
      <point x="660" y="141"/>
      <point x="660" y="356" type="curve" smooth="yes"/>
      <point x="660" y="552"/>
      <point x="550" y="710"/>
      <point x="327" y="710" type="curve" smooth="yes"/>
      <point x="99" y="710" type="line"/>
      <point x="99" y="0" type="line"/>
    </contour>
    <contour>
      <point x="640" y="356" type="curve" smooth="yes"/>
      <point x="640" y="165"/>
      <point x="533" y="20"/>
      <point x="327" y="20" type="curve" smooth="yes"/>
      <point x="119" y="20" type="line"/>
      <point x="119" y="690" type="line"/>
      <point x="327" y="690" type="line" smooth="yes"/>
      <point x="528" y="690"/>
      <point x="640" y="550"/>
    </contour>
    <contour>
      <point x="744" y="0" type="line"/>
      <point x="1161" y="0" type="line"/>
      <point x="1161" y="20" type="line"/>
      <point x="770" y="20" type="line"/>
      <point x="1165" y="499" type="line"/>
      <point x="1165" y="519" type="line"/>
      <point x="749" y="519" type="line"/>
      <point x="749" y="499" type="line"/>
      <point x="1140" y="499" type="line"/>
      <point x="744" y="20" type="line"/>
    </contour>
  </outline>
</glyph>
<glyph name="Oslashacute" format="1">
  <advance width="757"/>
  <unicode hex="01FE"/>
  <outline>
    <contour>
      <point x="593" y="710" type="line"/>
      <point x="558" y="656" type="line"/>
      <point x="508" y="693"/>
      <point x="447" y="715"/>
      <point x="379" y="715" type="curve" smooth="yes"/>
      <point x="192" y="715"/>
      <point x="48" y="544"/>
      <point x="48" y="355" type="curve" smooth="yes"/>
      <point x="48" y="244"/>
      <point x="98" y="135"/>
      <point x="181" y="67" type="curve"/>
      <point x="138" y="0" type="line"/>
      <point x="163" y="0" type="line"/>
      <point x="198" y="54" type="line"/>
      <point x="248" y="18"/>
      <point x="310" y="-4"/>
      <point x="379" y="-5" type="curve"/>
      <point x="565" y="-5"/>
      <point x="709" y="164"/>
      <point x="709" y="355" type="curve" smooth="yes"/>
      <point x="709" y="463"/>
      <point x="659" y="573"/>
      <point x="576" y="642" type="curve"/>
      <point x="619" y="710" type="line"/>
    </contour>
    <contour>
      <point x="689" y="355" type="curve" smooth="yes"/>
      <point x="689" y="188"/>
      <point x="564" y="15"/>
      <point x="379" y="15" type="curve" smooth="yes"/>
      <point x="314" y="15"/>
      <point x="256" y="36"/>
      <point x="208" y="71" type="curve"/>
      <point x="565" y="625" type="line"/>
      <point x="641" y="561"/>
      <point x="689" y="460"/>
    </contour>
    <contour>
      <point x="68" y="355" type="curve" smooth="yes"/>
      <point x="68" y="523"/>
      <point x="194" y="695"/>
      <point x="379" y="695" type="curve" smooth="yes"/>
      <point x="442" y="695"/>
      <point x="499" y="674"/>
      <point x="547" y="639" type="curve"/>
      <point x="191" y="84" type="line"/>
      <point x="115" y="148"/>
      <point x="68" y="249"/>
    </contour>
    <contour>
      <point x="447" y="918" type="line"/>
      <point x="413" y="918" type="line"/>
      <point x="349" y="845" type="line"/>
      <point x="365" y="833" type="line"/>
    </contour>
  </outline>
</glyph>
<glyph name="oslashacute" format="1">
  <advance width="586"/>
  <unicode hex="01FF"/>
  <outline>
    <contour>
      <point x="361" y="730" type="line"/>
      <point x="327" y="730" type="line"/>
      <point x="263" y="657" type="line"/>
      <point x="279" y="645" type="line"/>
    </contour>
    <contour>
      <point x="148" y="0" type="line"/>
      <point x="165" y="29" type="line"/>
      <point x="202" y="4"/>
      <point x="246" y="-10"/>
      <point x="293" y="-10" type="curve" smooth="yes"/>
      <point x="429" y="-10"/>
      <point x="540" y="113"/>
      <point x="540" y="258" type="curve" smooth="yes"/>
      <point x="540" y="345"/>
      <point x="499" y="424"/>
      <point x="438" y="474" type="curve"/>
      <point x="466" y="519" type="line"/>
      <point x="440" y="519" type="line"/>
      <point x="420" y="487" type="line"/>
      <point x="383" y="512"/>
      <point x="339" y="527"/>
      <point x="293" y="527" type="curve" smooth="yes"/>
      <point x="159" y="527"/>
      <point x="46" y="404"/>
      <point x="46" y="258" type="curve" smooth="yes"/>
      <point x="46" y="170"/>
      <point x="86" y="91"/>
      <point x="148" y="41" type="curve"/>
      <point x="123" y="0" type="line"/>
    </contour>
    <contour>
      <point x="66" y="256" type="curve" smooth="yes"/>
      <point x="66" y="392"/>
      <point x="170" y="507"/>
      <point x="293" y="507" type="curve" smooth="yes"/>
      <point x="335" y="507"/>
      <point x="376" y="493"/>
      <point x="410" y="470" type="curve"/>
      <point x="158" y="58" type="line"/>
      <point x="102" y="103"/>
      <point x="66" y="176"/>
    </contour>
    <contour>
      <point x="292" y="10" type="curve" smooth="yes"/>
      <point x="249" y="10"/>
      <point x="210" y="23"/>
      <point x="176" y="46" type="curve"/>
      <point x="428" y="456" type="line"/>
      <point x="483" y="410"/>
      <point x="520" y="338"/>
      <point x="520" y="259" type="curve" smooth="yes"/>
      <point x="520" y="124"/>
      <point x="416" y="10"/>
    </contour>
  </outline>
</glyph>
<glyph name="Adblgrave" format="1">
  <advance width="674"/>
  <unicode hex="0200"/>
  <outline>
    <contour>
      <point x="18" y="0" type="line"/>
      <point x="40" y="0" type="line"/>
      <point x="151" y="254" type="line"/>
      <point x="522" y="254" type="line"/>
      <point x="633" y="0" type="line"/>
      <point x="655" y="0" type="line"/>
      <point x="346" y="710" type="line"/>
      <point x="328" y="710" type="line"/>
    </contour>
    <contour>
      <point x="159" y="274" type="line"/>
      <point x="337" y="681" type="line"/>
      <point x="513" y="274" type="line"/>
    </contour>
    <contour>
      <point x="383" y="833" type="line"/>
      <point x="399" y="845" type="line"/>
      <point x="335" y="918" type="line"/>
      <point x="301" y="918" type="line"/>
    </contour>
    <contour>
      <point x="283" y="833" type="line"/>
      <point x="299" y="845" type="line"/>
      <point x="235" y="918" type="line"/>
      <point x="201" y="918" type="line"/>
    </contour>
  </outline>
</glyph>
<glyph name="einvertedbreve" format="1">
  <advance width="576"/>
  <unicode hex="0207"/>
  <outline>
    <contour>
      <point x="296" y="-10" type="curve" smooth="yes"/>
      <point x="386" y="-10"/>
      <point x="474" y="43"/>
      <point x="502" y="114" type="curve"/>
      <point x="483" y="119" type="line"/>
      <point x="454" y="55"/>
      <point x="377" y="10"/>
      <point x="297" y="10" type="curve" smooth="yes"/>
      <point x="176" y="10"/>
      <point x="76" y="114"/>
      <point x="66" y="248" type="curve"/>
      <point x="541" y="248" type="line"/>
      <point x="541" y="259" type="line"/>
      <point x="540" y="408"/>
      <point x="429" y="527"/>
      <point x="291" y="527" type="curve" smooth="yes"/>
      <point x="155" y="527"/>
      <point x="46" y="409"/>
      <point x="46" y="263" type="curve" smooth="yes"/>
      <point x="46" y="114"/>
      <point x="159" y="-10"/>
    </contour>
    <contour>
      <point x="66" y="268" type="line"/>
      <point x="73" y="405"/>
      <point x="169" y="507"/>
      <point x="292" y="507" type="curve" smooth="yes"/>
      <point x="415" y="507"/>
      <point x="511" y="407"/>
      <point x="520" y="268" type="curve"/>
    </contour>
    <contour>
      <point x="290" y="713" type="curve" smooth="yes"/>
      <point x="317" y="713"/>
      <point x="342" y="686"/>
      <point x="346" y="653" type="curve"/>
      <point x="364" y="653" type="line"/>
      <point x="364" y="694"/>
      <point x="329" y="730"/>
      <point x="290" y="730" type="curve" smooth="yes"/>
      <point x="251" y="730"/>
      <point x="216" y="694"/>
      <point x="216" y="653" type="curve"/>
      <point x="235" y="653" type="line"/>
      <point x="235" y="683"/>
      <point x="262" y="713"/>
    </contour>
  </outline>
</glyph>
<glyph name="iinvertedbreve" format="1">
  <advance width="188"/>
  <unicode hex="020B"/>
  <outline>
    <contour>
      <point x="104" y="0" type="line"/>
      <point x="104" y="519" type="line"/>
      <point x="84" y="519" type="line"/>
      <point x="84" y="0" type="line"/>
    </contour>
    <contour>
      <point x="93" y="713" type="curve" smooth="yes"/>
      <point x="120" y="713"/>
      <point x="145" y="686"/>
      <point x="149" y="653" type="curve"/>
      <point x="167" y="653" type="line"/>
      <point x="167" y="694"/>
      <point x="132" y="730"/>
      <point x="93" y="730" type="curve" smooth="yes"/>
      <point x="54" y="730"/>
      <point x="19" y="694"/>
      <point x="19" y="653" type="curve"/>
      <point x="38" y="653" type="line"/>
      <point x="38" y="683"/>
      <point x="65" y="713"/>
    </contour>
  </outline>
</glyph>
<glyph name="odblgrave" format="1">
  <advance width="586"/>
  <unicode hex="020D"/>
  <outline>
    <contour>
      <point x="293" y="-10" type="curve" smooth="yes"/>
      <point x="429" y="-10"/>
      <point x="540" y="113"/>
      <point x="540" y="258" type="curve" smooth="yes"/>
      <point x="540" y="404"/>
      <point x="427" y="527"/>
      <point x="293" y="527" type="curve" smooth="yes"/>
      <point x="159" y="527"/>
      <point x="46" y="404"/>
      <point x="46" y="258" type="curve" smooth="yes"/>
      <point x="46" y="113"/>
      <point x="156" y="-10"/>
    </contour>
    <contour>
      <point x="66" y="256" type="curve" smooth="yes"/>
      <point x="66" y="392"/>
      <point x="170" y="507"/>
      <point x="293" y="507" type="curve" smooth="yes"/>
      <point x="416" y="507"/>
      <point x="520" y="393"/>
      <point x="520" y="259" type="curve" smooth="yes"/>
      <point x="520" y="124"/>
      <point x="416" y="10"/>
      <point x="292" y="10" type="curve" smooth="yes"/>
      <point x="168" y="10"/>
      <point x="66" y="122"/>
    </contour>
    <contour>
      <point x="351" y="645" type="line"/>
      <point x="367" y="657" type="line"/>
      <point x="303" y="730" type="line"/>
      <point x="269" y="730" type="line"/>
    </contour>
    <contour>
      <point x="251" y="645" type="line"/>
      <point x="267" y="657" type="line"/>
      <point x="203" y="730" type="line"/>
      <point x="169" y="730" type="line"/>
    </contour>
  </outline>
</glyph>
<glyph name="Rdblgrave" format="1">
  <advance width="642"/>
  <unicode hex="0210"/>
  <outline>
    <contour>
      <point x="119" y="0" type="line"/>
      <point x="119" y="279" type="line"/>
      <point x="383" y="279" type="line"/>
      <point x="563" y="0" type="line"/>
      <point x="587" y="0" type="line"/>
      <point x="407" y="279" type="line"/>
      <point x="514" y="287"/>
      <point x="588" y="385"/>
      <point x="588" y="495" type="curve" smooth="yes"/>
      <point x="588" y="601"/>
      <point x="504" y="710"/>
      <point x="388" y="710" type="curve" smooth="yes"/>
      <point x="99" y="710" type="line"/>
      <point x="99" y="0" type="line"/>
    </contour>
    <contour>
      <point x="119" y="690" type="line"/>
      <point x="388" y="690" type="line" smooth="yes"/>
      <point x="488" y="690"/>
      <point x="568" y="596"/>
      <point x="568" y="495" type="curve" smooth="yes"/>
      <point x="568" y="397"/>
      <point x="502" y="299"/>
      <point x="395" y="299" type="curve" smooth="yes"/>
      <point x="119" y="299" type="line"/>
    </contour>
    <contour>
      <point x="380" y="833" type="line"/>
      <point x="396" y="845" type="line"/>
      <point x="332" y="918" type="line"/>
      <point x="298" y="918" type="line"/>
    </contour>
    <contour>
      <point x="280" y="833" type="line"/>
      <point x="296" y="845" type="line"/>
      <point x="232" y="918" type="line"/>
      <point x="198" y="918" type="line"/>
    </contour>
  </outline>
</glyph>
<glyph name="rinvertedbreve" format="1">
  <advance width="323"/>
  <unicode hex="0213"/>
  <outline>
    <contour>
      <point x="306" y="519" type="line"/>
      <point x="298" y="519"/>
      <point x="286" y="518"/>
      <point x="273" y="517" type="curve" smooth="yes"/>
      <point x="205" y="509"/>
      <point x="140" y="458"/>
      <point x="104" y="385" type="curve"/>
      <point x="104" y="519" type="line"/>
      <point x="84" y="519" type="line"/>
      <point x="84" y="0" type="line"/>
      <point x="104" y="0" type="line"/>
      <point x="104" y="328" type="line"/>
      <point x="132" y="431"/>
      <point x="208" y="495"/>
      <point x="306" y="499" type="curve"/>
    </contour>
    <contour>
      <point x="185" y="713" type="curve" smooth="yes"/>
      <point x="212" y="713"/>
      <point x="237" y="686"/>
      <point x="241" y="653" type="curve"/>
      <point x="259" y="653" type="line"/>
      <point x="259" y="694"/>
      <point x="224" y="730"/>
      <point x="185" y="730" type="curve" smooth="yes"/>
      <point x="146" y="730"/>
      <point x="111" y="694"/>
      <point x="111" y="653" type="curve"/>
      <point x="130" y="653" type="line"/>
      <point x="130" y="683"/>
      <point x="157" y="713"/>
    </contour>
  </outline>
</glyph>
<glyph name="Udblgrave" format="1">
  <advance width="756"/>
  <unicode hex="0214"/>
  <outline>
    <contour>
      <point x="378" y="15" type="curve" smooth="yes"/>
      <point x="168" y="15"/>
      <point x="108" y="184"/>
      <point x="108" y="355" type="curve" smooth="yes"/>
      <point x="108" y="710" type="line"/>
      <point x="88" y="710" type="line"/>
      <point x="88" y="355" type="line" smooth="yes"/>
      <point x="88" y="177"/>
      <point x="154" y="-5"/>
      <point x="379" y="-5" type="curve" smooth="yes"/>
      <point x="597" y="-5"/>
      <point x="669" y="167"/>
      <point x="669" y="355" type="curve" smooth="yes"/>
      <point x="669" y="710" type="line"/>
      <point x="649" y="710" type="line"/>
      <point x="649" y="355" type="line" smooth="yes"/>
      <point x="649" y="189"/>
      <point x="592" y="15"/>
    </contour>
    <contour>
      <point x="442" y="833" type="line"/>
      <point x="458" y="845" type="line"/>
      <point x="394" y="918" type="line"/>
      <point x="360" y="918" type="line"/>
    </contour>
    <contour>
      <point x="342" y="833" type="line"/>
      <point x="358" y="845" type="line"/>
      <point x="294" y="918" type="line"/>
      <point x="260" y="918" type="line"/>
    </contour>
  </outline>
</glyph>
<glyph name="uni0406" format="1">
  <advance width="218"/>
  <unicode hex="0406"/>
  <outline>
    <contour>
      <point x="119" y="0" type="line"/>
      <point x="119" y="710" type="line"/>
      <point x="99" y="710" type="line"/>
      <point x="99" y="0" type="line"/>
    </contour>
  </outline>
</glyph>
<glyph name="uni0408" format="1">
  <advance width="473"/>
  <unicode hex="0408"/>
  <outline>
    <contour>
      <point x="19" y="33" type="line"/>
      <point x="61" y="4"/>
      <point x="112" y="-11"/>
      <point x="173" y="-11" type="curve" smooth="yes"/>
      <point x="360" y="-11"/>
      <point x="383" y="133"/>
      <point x="383" y="349" type="curve" smooth="yes"/>
      <point x="383" y="710" type="line"/>
      <point x="363" y="710" type="line"/>
      <point x="363" y="349" type="line" smooth="yes"/>
      <point x="363" y="137"/>
      <point x="343" y="9"/>
      <point x="173" y="9" type="curve" smooth="yes"/>
      <point x="116" y="9"/>
      <point x="68" y="23"/>
      <point x="30" y="49" type="curve"/>
    </contour>
  </outline>
</glyph>
<glyph name="uni040B" format="1">
  <advance width="685"/>
  <unicode hex="040B"/>
  <outline>
    <contour>
      <point x="624" y="0" type="line"/>
      <point x="643" y="0" type="line"/>
      <point x="643" y="182" type="line" smooth="yes"/>
      <point x="643" y="352"/>
      <point x="574" y="426"/>
      <point x="414" y="426" type="curve" smooth="yes"/>
      <point x="349" y="426"/>
      <point x="285" y="411"/>
      <point x="228" y="384" type="curve"/>
      <point x="228" y="690" type="line"/>
      <point x="506" y="690" type="line"/>
      <point x="506" y="710" type="line"/>
      <point x="16" y="710" type="line"/>
      <point x="16" y="690" type="line"/>
      <point x="208" y="690" type="line"/>
      <point x="208" y="0" type="line"/>
      <point x="228" y="0" type="line"/>
      <point x="228" y="362" type="line"/>
      <point x="273" y="387"/>
      <point x="352" y="406"/>
      <point x="422" y="406" type="curve" smooth="yes"/>
      <point x="564" y="406"/>
      <point x="624" y="339"/>
      <point x="624" y="180" type="curve" smooth="yes"/>
    </contour>
  </outline>
</glyph>
<glyph name="uni0415" format="1">
  <advance width="617"/>
  <unicode hex="0415"/>
  <outline>
    <contour>
      <point x="119" y="20" type="line"/>
      <point x="119" y="353" type="line"/>
      <point x="502" y="353" type="line"/>
      <point x="502" y="373" type="line"/>
      <point x="119" y="373" type="line"/>
      <point x="119" y="690" type="line"/>
      <point x="556" y="690" type="line"/>
      <point x="556" y="710" type="line"/>
      <point x="99" y="710" type="line"/>
      <point x="99" y="0" type="line"/>
      <point x="565" y="0" type="line"/>
      <point x="565" y="20" type="line"/>
    </contour>
  </outline>
</glyph>
<glyph name="uni0419" format="1">
  <advance width="747"/>
  <unicode hex="0419"/>
  <outline>
    <contour>
      <point x="480" y="916" type="line"/>
      <point x="480" y="880"/>
      <point x="431" y="856"/>
      <point x="364" y="856" type="curve" smooth="yes"/>
      <point x="296" y="856"/>
      <point x="249" y="886"/>
      <point x="249" y="916" type="curve"/>
      <point x="230" y="916" type="line"/>
      <point x="230" y="875"/>
      <point x="272" y="839"/>
      <point x="364" y="839" type="curve" smooth="yes"/>
      <point x="456" y="839"/>
      <point x="498" y="875"/>
      <point x="498" y="916" type="curve"/>
    </contour>
    <contour>
      <point x="119" y="710" type="line"/>
      <point x="99" y="710" type="line"/>
      <point x="99" y="0" type="line"/>
      <point x="124" y="0" type="line"/>
      <point x="628" y="673" type="line"/>
      <point x="628" y="0" type="line"/>
      <point x="648" y="0" type="line"/>
      <point x="648" y="710" type="line"/>
      <point x="629" y="710" type="line"/>
      <point x="119" y="27" type="line"/>
    </contour>
  </outline>
</glyph>
<glyph name="uni0428" format="1">
  <advance width="898"/>
  <unicode hex="0428"/>
  <outline>
    <contour>
      <point x="779" y="710" type="line"/>
      <point x="779" y="20" type="line"/>
      <point x="459" y="20" type="line"/>
      <point x="459" y="710" type="line"/>
      <point x="439" y="710" type="line"/>
      <point x="439" y="20" type="line"/>
      <point x="119" y="20" type="line"/>
      <point x="119" y="710" type="line"/>
      <point x="99" y="710" type="line"/>
      <point x="99" y="0" type="line"/>
      <point x="799" y="0" type="line"/>
      <point x="799" y="710" type="line"/>
    </contour>
  </outline>
</glyph>
<glyph name="uni042A" format="1">
  <advance width="703"/>
  <unicode hex="042A"/>
  <outline>
    <contour>
      <point x="15" y="690" type="line"/>
      <point x="226" y="690" type="line"/>
      <point x="226" y="0" type="line"/>
      <point x="454" y="0" type="line" smooth="yes"/>
      <point x="601" y="0"/>
      <point x="671" y="99"/>
      <point x="671" y="209" type="curve" smooth="yes"/>
      <point x="671" y="330"/>
      <point x="603" y="418"/>
      <point x="451" y="418" type="curve" smooth="yes"/>
      <point x="246" y="418" type="line"/>
      <point x="246" y="710" type="line"/>
      <point x="15" y="710" type="line"/>
    </contour>
    <contour>
      <point x="246" y="398" type="line"/>
      <point x="451" y="398" type="line" smooth="yes"/>
      <point x="608" y="398"/>
      <point x="651" y="307"/>
      <point x="651" y="209" type="curve" smooth="yes"/>
      <point x="651" y="114"/>
      <point x="596" y="20"/>
      <point x="454" y="20" type="curve" smooth="yes"/>
      <point x="246" y="20" type="line"/>
    </contour>
  </outline>
</glyph>
<glyph name="uni0439" format="1">
  <advance width="581"/>
  <unicode hex="0439"/>
  <outline>
    <contour>
      <point x="379" y="682" type="line"/>
      <point x="371" y="657"/>
      <point x="355" y="637"/>
      <point x="288" y="637" type="curve" smooth="yes"/>
      <point x="220" y="637"/>
      <point x="197" y="660"/>
      <point x="197" y="682" type="curve"/>
      <point x="180" y="682" type="line"/>
      <point x="180" y="650"/>
      <point x="210" y="621"/>
      <point x="288" y="621" type="curve" smooth="yes"/>
      <point x="365" y="621"/>
      <point x="395" y="650"/>
      <point x="395" y="682" type="curve"/>
    </contour>
    <contour>
      <point x="104" y="518" type="line"/>
      <point x="84" y="518" type="line"/>
      <point x="84" y="0" type="line"/>
      <point x="107" y="0" type="line"/>
      <point x="477" y="483" type="line"/>
      <point x="477" y="0" type="line"/>
      <point x="497" y="0" type="line"/>
      <point x="497" y="519" type="line"/>
      <point x="479" y="519" type="line"/>
      <point x="104" y="28" type="line"/>
    </contour>
  </outline>
</glyph>
<glyph name="uni043B" format="1">
  <advance width="505"/>
  <unicode hex="043B"/>
  <outline>
    <contour>
      <point x="12" y="0" type="line"/>
      <point x="85" y="0"/>
      <point x="136" y="88"/>
      <point x="168" y="378" type="curve" smooth="yes"/>
      <point x="181" y="500" type="line"/>
      <point x="401" y="500" type="line"/>
      <point x="401" y="0" type="line"/>
      <point x="421" y="0" type="line"/>
      <point x="421" y="519" type="line"/>
      <point x="162" y="519" type="line"/>
      <point x="148" y="388" type="line" smooth="yes"/>
      <point x="116" y="97"/>
      <point x="64" y="20"/>
      <point x="12" y="20" type="curve"/>
    </contour>
  </outline>
</glyph>
<glyph name="uni043E" format="1">
  <advance width="586"/>
  <unicode hex="043E"/>
  <outline>
    <contour>
      <point x="293" y="-10" type="curve" smooth="yes"/>
      <point x="429" y="-10"/>
      <point x="540" y="113"/>
      <point x="540" y="258" type="curve" smooth="yes"/>
      <point x="540" y="404"/>
      <point x="427" y="527"/>
      <point x="293" y="527" type="curve" smooth="yes"/>
      <point x="159" y="527"/>
      <point x="46" y="404"/>
      <point x="46" y="258" type="curve" smooth="yes"/>
      <point x="46" y="113"/>
      <point x="156" y="-10"/>
    </contour>
    <contour>
      <point x="66" y="256" type="curve" smooth="yes"/>
      <point x="66" y="392"/>
      <point x="170" y="507"/>
      <point x="293" y="507" type="curve" smooth="yes"/>
      <point x="416" y="507"/>
      <point x="520" y="393"/>
      <point x="520" y="259" type="curve" smooth="yes"/>
      <point x="520" y="124"/>
      <point x="416" y="10"/>
      <point x="292" y="10" type="curve" smooth="yes"/>
      <point x="168" y="10"/>
      <point x="66" y="122"/>
    </contour>
  </outline>
</glyph>
<glyph name="uni0447" format="1">
  <advance width="472"/>
  <unicode hex="0447"/>
  <outline>
    <contour>
      <point x="388" y="519" type="line"/>
      <point x="367" y="519" type="line"/>
      <point x="367" y="261" type="line"/>
      <point x="335" y="241"/>
      <point x="272" y="225"/>
      <point x="213" y="225" type="curve" smooth="yes"/>
      <point x="111" y="225"/>
      <point x="67" y="274"/>
      <point x="67" y="390" type="curve" smooth="yes"/>
      <point x="67" y="519" type="line"/>
      <point x="47" y="519" type="line"/>
      <point x="47" y="388" type="line" smooth="yes"/>
      <point x="47" y="263"/>
      <point x="98" y="206"/>
      <point x="217" y="206" type="curve" smooth="yes"/>
      <point x="272" y="206"/>
      <point x="322" y="217"/>
      <point x="367" y="239" type="curve"/>
      <point x="367" y="0" type="line"/>
      <point x="388" y="0" type="line"/>
    </contour>
  </outline>
</glyph>
<glyph name="uni044A" format="1">
  <advance width="559"/>
  <unicode hex="044A"/>
  <outline>
    <contour>
      <point x="215" y="519" type="line"/>
      <point x="20" y="519" type="line"/>
      <point x="20" y="500" type="line"/>
      <point x="195" y="500" type="line"/>
      <point x="195" y="0" type="line"/>
      <point x="363" y="0" type="line" smooth="yes"/>
      <point x="470" y="0"/>
      <point x="524" y="75"/>
      <point x="524" y="164" type="curve" smooth="yes"/>
      <point x="524" y="256"/>
      <point x="471" y="321"/>
      <point x="361" y="321" type="curve" smooth="yes"/>
      <point x="215" y="321" type="line"/>
    </contour>
    <contour>
      <point x="215" y="19" type="line"/>
      <point x="215" y="302" type="line"/>
      <point x="361" y="302" type="line" smooth="yes"/>
      <point x="472" y="302"/>
      <point x="504" y="236"/>
      <point x="504" y="164" type="curve" smooth="yes"/>
      <point x="504" y="90"/>
      <point x="464" y="19"/>
      <point x="363" y="19" type="curve" smooth="yes"/>
    </contour>
  </outline>
</glyph>
<glyph name="uni0452" format="1">
  <advance width="565"/>
  <unicode hex="0452"/>
  <outline>
    <contour>
      <point x="487" y="259" type="line" smooth="yes"/>
      <point x="487" y="415"/>
      <point x="437" y="497"/>
      <point x="312" y="497" type="curve" smooth="yes"/>
      <point x="217" y="497"/>
      <point x="139" y="429"/>
      <point x="104" y="325" type="curve"/>
      <point x="104" y="603" type="line"/>
      <point x="350" y="603" type="line"/>
      <point x="350" y="623" type="line"/>
      <point x="104" y="623" type="line"/>
      <point x="104" y="730" type="line"/>
      <point x="84" y="730" type="line"/>
      <point x="84" y="623" type="line"/>
      <point x="10" y="623" type="line"/>
      <point x="10" y="603" type="line"/>
      <point x="84" y="603" type="line"/>
      <point x="84" y="0" type="line"/>
      <point x="104" y="0" type="line"/>
      <point x="104" y="268" type="line"/>
      <point x="130" y="387"/>
      <point x="210" y="477"/>
      <point x="313" y="477" type="curve" smooth="yes"/>
      <point x="425" y="477"/>
      <point x="467" y="403"/>
      <point x="467" y="259" type="curve" smooth="yes"/>
      <point x="467" y="-36" type="line" smooth="yes"/>
      <point x="467" y="-100"/>
      <point x="408" y="-150"/>
      <point x="353" y="-150" type="curve" smooth="yes"/>
      <point x="325" y="-150"/>
      <point x="294" y="-145"/>
      <point x="270" y="-124" type="curve"/>
      <point x="254" y="-136" type="line"/>
      <point x="280" y="-162"/>
      <point x="315" y="-170"/>
      <point x="354" y="-170" type="curve" smooth="yes"/>
      <point x="416" y="-170"/>
      <point x="487" y="-114"/>
      <point x="487" y="-36" type="curve" smooth="yes"/>
    </contour>
  </outline>
</glyph>
<glyph name="uni045D" format="1">
  <advance width="581"/>
  <unicode hex="045D"/>
  <outline>
    <contour>
      <point x="104" y="518" type="line"/>
      <point x="84" y="518" type="line"/>
      <point x="84" y="0" type="line"/>
      <point x="107" y="0" type="line"/>
      <point x="477" y="483" type="line"/>
      <point x="477" y="0" type="line"/>
      <point x="497" y="0" type="line"/>
      <point x="497" y="519" type="line"/>
      <point x="479" y="519" type="line"/>
      <point x="104" y="28" type="line"/>
    </contour>
    <contour>
      <point x="303" y="645" type="line"/>
      <point x="319" y="657" type="line"/>
      <point x="254" y="730" type="line"/>
      <point x="221" y="730" type="line"/>
    </contour>
  </outline>
</glyph>
<glyph name="uni045E" format="1">
  <advance width="536"/>
  <unicode hex="045E"/>
  <outline>
    <contour>
      <point x="356" y="682" type="line"/>
      <point x="348" y="657"/>
      <point x="332" y="637"/>
      <point x="265" y="637" type="curve" smooth="yes"/>
      <point x="197" y="637"/>
      <point x="174" y="660"/>
      <point x="174" y="682" type="curve"/>
      <point x="157" y="682" type="line"/>
      <point x="157" y="650"/>
      <point x="187" y="621"/>
      <point x="265" y="621" type="curve" smooth="yes"/>
      <point x="342" y="621"/>
      <point x="372" y="650"/>
      <point x="372" y="682" type="curve"/>
    </contour>
    <contour>
      <point x="128" y="-223" type="line"/>
      <point x="142" y="-223"/>
      <point x="157" y="-221"/>
      <point x="169" y="-218" type="curve" smooth="yes"/>
      <point x="183" y="-215"/>
      <point x="194" y="-204"/>
      <point x="202" y="-186" type="curve" smooth="yes"/>
      <point x="511" y="519" type="line"/>
      <point x="489" y="519" type="line"/>
      <point x="272" y="25" type="line"/>
      <point x="43" y="519" type="line"/>
      <point x="21" y="519" type="line"/>
      <point x="262" y="0" type="line"/>
      <point x="193" y="-158"/>
      <point x="179" y="-188"/>
      <point x="175" y="-193" type="curve" smooth="yes"/>
      <point x="170" y="-199"/>
      <point x="151" y="-203"/>
      <point x="128" y="-203" type="curve"/>
    </contour>
  </outline>
</glyph>
<glyph name="Ndotaccent" format="1">
  <advance width="776"/>
  <unicode hex="1E44"/>
  <outline>
    <contour>
      <point x="654" y="0" type="line"/>
      <point x="677" y="0" type="line"/>
      <point x="677" y="710" type="line"/>
      <point x="657" y="710" type="line"/>
      <point x="657" y="29" type="line"/>
      <point x="114" y="710" type="line"/>
      <point x="99" y="710" type="line"/>
      <point x="99" y="0" type="line"/>
      <point x="119" y="0" type="line"/>
      <point x="119" y="671" type="line"/>
    </contour>
    <contour>
      <point x="403" y="841" type="line"/>
      <point x="403" y="918" type="line"/>
      <point x="383" y="918" type="line"/>
      <point x="383" y="841" type="line"/>
    </contour>
  </outline>
</glyph>
<glyph name="rdotbelow" format="1">
  <advance width="323"/>
  <unicode hex="1E5B"/>
  <outline>
    <contour>
      <point x="306" y="519" type="line"/>
      <point x="298" y="519"/>
      <point x="286" y="518"/>
      <point x="273" y="517" type="curve" smooth="yes"/>
      <point x="205" y="509"/>
      <point x="140" y="458"/>
      <point x="104" y="385" type="curve"/>
      <point x="104" y="519" type="line"/>
      <point x="84" y="519" type="line"/>
      <point x="84" y="0" type="line"/>
      <point x="104" y="0" type="line"/>
      <point x="104" y="328" type="line"/>
      <point x="132" y="431"/>
      <point x="208" y="495"/>
      <point x="306" y="499" type="curve"/>
    </contour>
    <contour>
      <point x="104" y="-127" type="line"/>
      <point x="104" y="-50" type="line"/>
      <point x="84" y="-50" type="line"/>
      <point x="84" y="-127" type="line"/>
    </contour>
  </outline>
</glyph>
<glyph name="Idotbelow" format="1">
  <advance width="218"/>
  <unicode hex="1ECA"/>
  <outline>
    <contour>
      <point x="119" y="0" type="line"/>
      <point x="119" y="710" type="line"/>
      <point x="99" y="710" type="line"/>
      <point x="99" y="0" type="line"/>
    </contour>
    <contour>
      <point x="119" y="-127" type="line"/>
      <point x="119" y="-50" type="line"/>
      <point x="99" y="-50" type="line"/>
      <point x="99" y="-127" type="line"/>
    </contour>
  </outline>
</glyph>
<glyph name="dagger" format="1">
  <advance width="371"/>
  <unicode hex="2020"/>
  <outline>
    <contour>
      <point x="196" y="-130" type="line"/>
      <point x="196" y="261" type="line"/>
      <point x="327" y="261" type="line"/>
      <point x="327" y="281" type="line"/>
      <point x="196" y="281" type="line"/>
      <point x="196" y="775" type="line"/>
      <point x="176" y="775" type="line"/>
      <point x="176" y="281" type="line"/>
      <point x="44" y="281" type="line"/>
      <point x="44" y="261" type="line"/>
      <point x="176" y="261" type="line"/>
      <point x="176" y="-130" type="line"/>
    </contour>
  </outline>
</glyph>
<glyph name="colonmonetary" format="1">
  <advance width="537"/>
  <unicode hex="20A1"/>
  <outline>
    <contour>
      <point x="232" y="-120" type="line"/>
      <point x="252" y="-120" type="line"/>
      <point x="252" y="-6" type="line"/>
      <point x="266" y="-8"/>
      <point x="280" y="-10"/>
      <point x="295" y="-10" type="curve" smooth="yes"/>
      <point x="304" y="-10"/>
      <point x="313" y="-9"/>
      <point x="322" y="-8" type="curve"/>
      <point x="322" y="-120" type="line"/>
      <point x="342" y="-120" type="line"/>
      <point x="342" y="-5" type="line"/>
      <point x="414" y="9"/>
      <point x="477" y="55"/>
      <point x="496" y="113" type="curve"/>
      <point x="476" y="119" type="line"/>
      <point x="460" y="62"/>
      <point x="373" y="10"/>
      <point x="292" y="10" type="curve" smooth="yes"/>
      <point x="168" y="10"/>
      <point x="64" y="125"/>
      <point x="64" y="262" type="curve" smooth="yes"/>
      <point x="64" y="399"/>
      <point x="164" y="507"/>
      <point x="291" y="507" type="curve" smooth="yes"/>
      <point x="367" y="507"/>
      <point x="435" y="468"/>
      <point x="469" y="404" type="curve"/>
      <point x="489" y="411" type="line"/>
      <point x="460" y="470"/>
      <point x="407" y="509"/>
      <point x="342" y="522" type="curve"/>
      <point x="342" y="645" type="line"/>
      <point x="322" y="645" type="line"/>
      <point x="322" y="525" type="line"/>
      <point x="313" y="526"/>
      <point x="303" y="527"/>
      <point x="294" y="527" type="curve" smooth="yes"/>
      <point x="279" y="527"/>
      <point x="265" y="526"/>
      <point x="252" y="523" type="curve"/>
      <point x="252" y="645" type="line"/>
      <point x="232" y="645" type="line"/>
      <point x="232" y="519" type="line"/>
      <point x="122" y="490"/>
      <point x="44" y="388"/>
      <point x="44" y="262" type="curve" smooth="yes"/>
      <point x="44" y="136"/>
      <point x="124" y="29"/>
      <point x="232" y="-1" type="curve"/>
    </contour>
  </outline>
</glyph>
<glyph name="uni20B9" format="1">
  <advance width="411"/>
  <unicode hex="20B9"/>
  <outline>
    <contour>
      <point x="371" y="620" type="line"/>
      <point x="270" y="620" type="line"/>
      <point x="250" y="649"/>
      <point x="224" y="674"/>
      <point x="193" y="690" type="curve"/>
      <point x="371" y="690" type="line"/>
      <point x="371" y="710" type="line"/>
      <point x="46" y="710" type="line"/>
      <point x="46" y="690" type="line"/>
      <point x="117" y="690" type="line"/>
      <point x="169" y="687"/>
      <point x="215" y="660"/>
      <point x="246" y="620" type="curve"/>
      <point x="46" y="620" type="line"/>
      <point x="46" y="600" type="line"/>
      <point x="260" y="600" type="line"/>
      <point x="279" y="569"/>
      <point x="290" y="532"/>
      <point x="290" y="495" type="curve" smooth="yes"/>
      <point x="290" y="397"/>
      <point x="224" y="299"/>
      <point x="117" y="299" type="curve" smooth="yes"/>
      <point x="92" y="299" type="line"/>
      <point x="285" y="0" type="line"/>
      <point x="309" y="0" type="line"/>
      <point x="129" y="279" type="line"/>
      <point x="236" y="287"/>
      <point x="310" y="385"/>
      <point x="310" y="495" type="curve" smooth="yes"/>
      <point x="310" y="531"/>
      <point x="300" y="567"/>
      <point x="282" y="600" type="curve"/>
      <point x="371" y="600" type="line"/>
    </contour>
  </outline>
</glyph>
<glyph name="onethird" format="1">
  <advance width="788"/>
  <unicode hex="2153"/>
  <outline>
    <contour>
      <point x="93" y="-1" type="line"/>
      <point x="651" y="699" type="line"/>
      <point x="635" y="711" type="line"/>
      <point x="77" y="11" type="line"/>
    </contour>
    <contour>
      <point x="166" y="361" type="line"/>
      <point x="166" y="731" type="line"/>
      <point x="146" y="731" type="line"/>
      <point x="144" y="728"/>
      <point x="92" y="677"/>
      <point x="49" y="677" type="curve"/>
      <point x="49" y="658" type="line"/>
      <point x="82" y="658"/>
      <point x="132" y="688"/>
      <point x="146" y="705" type="curve"/>
      <point x="146" y="361" type="line"/>
      <point x="63" y="361" type="line"/>
      <point x="63" y="342" type="line"/>
      <point x="244" y="342" type="line"/>
      <point x="244" y="361" type="line"/>
    </contour>
    <contour>
      <point x="605" y="-5" type="curve" smooth="yes"/>
      <point x="687" y="-5"/>
      <point x="752" y="38"/>
      <point x="752" y="97" type="curve" smooth="yes"/>
      <point x="752" y="146"/>
      <point x="712" y="185"/>
      <point x="651" y="195" type="curve"/>
      <point x="710" y="208"/>
      <point x="740" y="237"/>
      <point x="740" y="282" type="curve" smooth="yes"/>
      <point x="740" y="342"/>
      <point x="679" y="388"/>
      <point x="597" y="388" type="curve" smooth="yes"/>
      <point x="536" y="388"/>
      <point x="483" y="362"/>
      <point x="463" y="322" type="curve"/>
      <point x="478" y="310" type="line"/>
      <point x="495" y="345"/>
      <point x="541" y="370"/>
      <point x="597" y="370" type="curve" smooth="yes"/>
      <point x="667" y="370"/>
      <point x="719" y="333"/>
      <point x="719" y="281" type="curve" smooth="yes"/>
      <point x="719" y="231"/>
      <point x="670" y="204"/>
      <point x="583" y="204" type="curve" smooth="yes"/>
      <point x="561" y="204" type="line"/>
      <point x="561" y="186" type="line"/>
      <point x="583" y="186" type="line" smooth="yes"/>
      <point x="672" y="186"/>
      <point x="732" y="152"/>
      <point x="732" y="99" type="curve" smooth="yes"/>
      <point x="732" y="50"/>
      <point x="677" y="14"/>
      <point x="605" y="14" type="curve" smooth="yes"/>
      <point x="532" y="14"/>
      <point x="475" y="53"/>
      <point x="472" y="98" type="curve"/>
      <point x="456" y="91" type="line"/>
      <point x="460" y="35"/>
      <point x="522" y="-5"/>
    </contour>
  </outline>
</glyph>
<glyph name="oneeighth" format="1">
  <advance width="787"/>
  <unicode hex="215B"/>
  <outline>
    <contour>
      <point x="103" y="-1" type="line"/>
      <point x="661" y="699" type="line"/>
      <point x="645" y="711" type="line"/>
      <point x="87" y="11" type="line"/>
    </contour>
    <contour>
      <point x="164" y="361" type="line"/>
      <point x="164" y="731" type="line"/>
      <point x="144" y="731" type="line"/>
      <point x="142" y="728"/>
      <point x="90" y="677"/>
      <point x="47" y="677" type="curve"/>
      <point x="47" y="658" type="line"/>
      <point x="80" y="658"/>
      <point x="130" y="688"/>
      <point x="144" y="705" type="curve"/>
      <point x="144" y="361" type="line"/>
      <point x="61" y="361" type="line"/>
      <point x="61" y="342" type="line"/>
      <point x="242" y="342" type="line"/>
      <point x="242" y="361" type="line"/>
    </contour>
    <contour>
      <point x="752" y="103" type="curve" smooth="yes"/>
      <point x="752" y="154"/>
      <point x="709" y="191"/>
      <point x="653" y="206" type="curve"/>
      <point x="698" y="219"/>
      <point x="736" y="249"/>
      <point x="736" y="290" type="curve" smooth="yes"/>
      <point x="736" y="350"/>
      <point x="669" y="383"/>
      <point x="604" y="383" type="curve" smooth="yes"/>
      <point x="539" y="383"/>
      <point x="471" y="350"/>
      <point x="471" y="290" type="curve" smooth="yes"/>
      <point x="471" y="249"/>
      <point x="509" y="220"/>
      <point x="553" y="206" type="curve"/>
      <point x="505" y="193"/>
      <point x="455" y="157"/>
      <point x="455" y="105" type="curve" smooth="yes"/>
      <point x="455" y="47"/>
      <point x="513" y="-4"/>
      <point x="602" y="-4" type="curve" smooth="yes"/>
      <point x="682" y="-4"/>
      <point x="752" y="38"/>
    </contour>
    <contour>
      <point x="732" y="105" type="curve" smooth="yes"/>
      <point x="732" y="49"/>
      <point x="666" y="14"/>
      <point x="604" y="14" type="curve" smooth="yes"/>
      <point x="545" y="14"/>
      <point x="475" y="47"/>
      <point x="475" y="104" type="curve" smooth="yes"/>
      <point x="475" y="160"/>
      <point x="541" y="197"/>
      <point x="603" y="197" type="curve" smooth="yes"/>
      <point x="662" y="197"/>
      <point x="732" y="163"/>
    </contour>
    <contour>
      <point x="491" y="289" type="curve" smooth="yes"/>
      <point x="491" y="336"/>
      <point x="545" y="365"/>
      <point x="603" y="365" type="curve" smooth="yes"/>
      <point x="660" y="365"/>
      <point x="716" y="337"/>
      <point x="716" y="290" type="curve" smooth="yes"/>
      <point x="716" y="242"/>
      <point x="655" y="214"/>
      <point x="603" y="214" type="curve" smooth="yes"/>
      <point x="552" y="214"/>
      <point x="491" y="241"/>
    </contour>
  </outline>
</glyph>
<glyph name="threeeighths" format="1">
  <advance width="793"/>
  <unicode hex="215C"/>
  <outline>
    <contour>
      <point x="126" y="-1" type="line"/>
      <point x="684" y="699" type="line"/>
      <point x="668" y="711" type="line"/>
      <point x="110" y="11" type="line"/>
    </contour>
    <contour>
      <point x="756" y="103" type="curve" smooth="yes"/>
      <point x="756" y="154"/>
      <point x="713" y="191"/>
      <point x="657" y="206" type="curve"/>
      <point x="702" y="219"/>
      <point x="740" y="249"/>
      <point x="740" y="290" type="curve" smooth="yes"/>
      <point x="740" y="350"/>
      <point x="673" y="383"/>
      <point x="608" y="383" type="curve" smooth="yes"/>
      <point x="543" y="383"/>
      <point x="475" y="350"/>
      <point x="475" y="290" type="curve" smooth="yes"/>
      <point x="475" y="249"/>
      <point x="513" y="220"/>
      <point x="557" y="206" type="curve"/>
      <point x="509" y="193"/>
      <point x="459" y="157"/>
      <point x="459" y="105" type="curve" smooth="yes"/>
      <point x="459" y="47"/>
      <point x="517" y="-4"/>
      <point x="606" y="-4" type="curve" smooth="yes"/>
      <point x="686" y="-4"/>
      <point x="756" y="38"/>
    </contour>
    <contour>
      <point x="736" y="105" type="curve" smooth="yes"/>
      <point x="736" y="49"/>
      <point x="670" y="14"/>
      <point x="608" y="14" type="curve" smooth="yes"/>
      <point x="549" y="14"/>
      <point x="479" y="47"/>
      <point x="479" y="104" type="curve" smooth="yes"/>
      <point x="479" y="160"/>
      <point x="545" y="197"/>
      <point x="607" y="197" type="curve" smooth="yes"/>
      <point x="666" y="197"/>
      <point x="736" y="163"/>
    </contour>
    <contour>
      <point x="495" y="289" type="curve" smooth="yes"/>
      <point x="495" y="336"/>
      <point x="549" y="365"/>
      <point x="607" y="365" type="curve" smooth="yes"/>
      <point x="664" y="365"/>
      <point x="720" y="337"/>
      <point x="720" y="290" type="curve" smooth="yes"/>
      <point x="720" y="242"/>
      <point x="659" y="214"/>
      <point x="607" y="214" type="curve" smooth="yes"/>
      <point x="556" y="214"/>
      <point x="495" y="241"/>
    </contour>
    <contour>
      <point x="195" y="338" type="curve" smooth="yes"/>
      <point x="277" y="338"/>
      <point x="342" y="381"/>
      <point x="342" y="440" type="curve" smooth="yes"/>
      <point x="342" y="489"/>
      <point x="302" y="528"/>
      <point x="241" y="538" type="curve"/>
      <point x="300" y="551"/>
      <point x="330" y="580"/>
      <point x="330" y="625" type="curve" smooth="yes"/>
      <point x="330" y="685"/>
      <point x="269" y="731"/>
      <point x="187" y="731" type="curve" smooth="yes"/>
      <point x="126" y="731"/>
      <point x="73" y="705"/>
      <point x="53" y="665" type="curve"/>
      <point x="68" y="653" type="line"/>
      <point x="85" y="688"/>
      <point x="131" y="713"/>
      <point x="187" y="713" type="curve" smooth="yes"/>
      <point x="257" y="713"/>
      <point x="309" y="676"/>
      <point x="309" y="624" type="curve" smooth="yes"/>
      <point x="309" y="574"/>
      <point x="260" y="547"/>
      <point x="173" y="547" type="curve" smooth="yes"/>
      <point x="151" y="547" type="line"/>
      <point x="151" y="529" type="line"/>
      <point x="173" y="529" type="line" smooth="yes"/>
      <point x="262" y="529"/>
      <point x="322" y="495"/>
      <point x="322" y="442" type="curve" smooth="yes"/>
      <point x="322" y="393"/>
      <point x="267" y="357"/>
      <point x="195" y="357" type="curve" smooth="yes"/>
      <point x="122" y="357"/>
      <point x="65" y="396"/>
      <point x="62" y="441" type="curve"/>
      <point x="46" y="434" type="line"/>
      <point x="50" y="378"/>
      <point x="112" y="338"/>
    </contour>
  </outline>
</glyph>
<glyph name="summation" format="1">
  <advance width="487"/>
  <unicode hex="2211"/>
  <outline>
    <contour>
      <point x="437" y="710" type="line"/>
      <point x="35" y="710" type="line"/>
      <point x="35" y="688" type="line"/>
      <point x="265" y="371" type="line"/>
      <point x="32" y="23" type="line"/>
      <point x="32" y="0" type="line"/>
      <point x="452" y="0" type="line"/>
      <point x="452" y="25" type="line"/>
      <point x="59" y="25" type="line"/>
      <point x="59" y="29" type="line"/>
      <point x="290" y="369" type="line"/>
      <point x="59" y="686" type="line"/>
      <point x="59" y="690" type="line"/>
      <point x="437" y="690" type="line"/>
    </contour>
  </outline>
</glyph>
<glyph name="minus" format="1">
  <advance width="545"/>
  <unicode hex="2212"/>
  <outline>
    <contour>
      <point x="474" y="261" type="line"/>
      <point x="474" y="281" type="line"/>
      <point x="71" y="281" type="line"/>
      <point x="71" y="261" type="line"/>
    </contour>
  </outline>
</glyph>
<glyph name="nine.denominator" format="1">
  <advance width="389"/>
  <outline>
    <contour>
      <point x="36" y="255" type="curve" smooth="yes"/>
      <point x="36" y="183"/>
      <point x="103" y="124"/>
      <point x="186" y="124" type="curve" smooth="yes"/>
      <point x="249" y="124"/>
      <point x="306" y="158"/>
      <point x="325" y="207" type="curve"/>
      <point x="325" y="84"/>
      <point x="269" y="13"/>
      <point x="187" y="13" type="curve" smooth="yes"/>
      <point x="135" y="13"/>
      <point x="90" y="40"/>
      <point x="74" y="81" type="curve"/>
      <point x="59" y="71" type="line"/>
      <point x="78" y="24"/>
      <point x="128" y="-5"/>
      <point x="187" y="-5" type="curve" smooth="yes"/>
      <point x="281" y="-5"/>
      <point x="345" y="69"/>
      <point x="345" y="233" type="curve" smooth="yes"/>
      <point x="345" y="328"/>
      <point x="278" y="386"/>
      <point x="189" y="386" type="curve" smooth="yes"/>
      <point x="104" y="386"/>
      <point x="36" y="328"/>
    </contour>
    <contour>
      <point x="188" y="368" type="curve" smooth="yes"/>
      <point x="261" y="368"/>
      <point x="322" y="316"/>
      <point x="322" y="255" type="curve" smooth="yes"/>
      <point x="322" y="194"/>
      <point x="262" y="142"/>
      <point x="189" y="142" type="curve" smooth="yes"/>
      <point x="117" y="142"/>
      <point x="56" y="194"/>
      <point x="56" y="256" type="curve" smooth="yes"/>
      <point x="56" y="317"/>
      <point x="115" y="368"/>
    </contour>
  </outline>
</glyph>
<glyph name="nine.numerator" format="1">
  <advance width="389"/>
  <outline>
    <contour>
      <point x="36" y="599" type="curve" smooth="yes"/>
      <point x="36" y="527"/>
      <point x="103" y="468"/>
      <point x="186" y="468" type="curve" smooth="yes"/>
      <point x="249" y="468"/>
      <point x="306" y="502"/>
      <point x="325" y="551" type="curve"/>
      <point x="325" y="428"/>
      <point x="269" y="357"/>
      <point x="187" y="357" type="curve" smooth="yes"/>
      <point x="135" y="357"/>
      <point x="90" y="384"/>
      <point x="74" y="425" type="curve"/>
      <point x="59" y="415" type="line"/>
      <point x="78" y="368"/>
      <point x="128" y="339"/>
      <point x="187" y="339" type="curve" smooth="yes"/>
      <point x="281" y="339"/>
      <point x="345" y="413"/>
      <point x="345" y="577" type="curve" smooth="yes"/>
      <point x="345" y="672"/>
      <point x="278" y="730"/>
      <point x="189" y="730" type="curve" smooth="yes"/>
      <point x="104" y="730"/>
      <point x="36" y="672"/>
    </contour>
    <contour>
      <point x="188" y="712" type="curve" smooth="yes"/>
      <point x="261" y="712"/>
      <point x="322" y="660"/>
      <point x="322" y="599" type="curve" smooth="yes"/>
      <point x="322" y="538"/>
      <point x="262" y="486"/>
      <point x="189" y="486" type="curve" smooth="yes"/>
      <point x="117" y="486"/>
      <point x="56" y="538"/>
      <point x="56" y="600" type="curve" smooth="yes"/>
      <point x="56" y="661"/>
      <point x="115" y="712"/>
    </contour>
  </outline>
</glyph>
<glyph name="six.denominator" format="1">
  <advance width="389"/>
  <outline>
    <contour>
      <point x="353" y="126" type="curve" smooth="yes"/>
      <point x="353" y="198"/>
      <point x="286" y="256"/>
      <point x="203" y="256" type="curve" smooth="yes"/>
      <point x="140" y="256"/>
      <point x="83" y="223"/>
      <point x="64" y="173" type="curve"/>
      <point x="65" y="297"/>
      <point x="120" y="368"/>
      <point x="202" y="368" type="curve" smooth="yes"/>
      <point x="254" y="368"/>
      <point x="299" y="340"/>
      <point x="315" y="300" type="curve"/>
      <point x="330" y="310" type="line"/>
      <point x="311" y="357"/>
      <point x="261" y="386"/>
      <point x="202" y="386" type="curve" smooth="yes"/>
      <point x="109" y="386"/>
      <point x="44" y="311"/>
      <point x="44" y="148" type="curve" smooth="yes"/>
      <point x="44" y="53"/>
      <point x="111" y="-5"/>
      <point x="200" y="-5" type="curve" smooth="yes"/>
      <point x="285" y="-5"/>
      <point x="353" y="53"/>
    </contour>
    <contour>
      <point x="201" y="13" type="curve" smooth="yes"/>
      <point x="128" y="13"/>
      <point x="67" y="64"/>
      <point x="67" y="126" type="curve" smooth="yes"/>
      <point x="67" y="187"/>
      <point x="127" y="239"/>
      <point x="200" y="239" type="curve" smooth="yes"/>
      <point x="273" y="239"/>
      <point x="334" y="187"/>
      <point x="334" y="125" type="curve" smooth="yes"/>
      <point x="334" y="64"/>
      <point x="274" y="13"/>
    </contour>
  </outline>
</glyph>
